<?xml version="1.0" encoding="UTF-8"?>
<svg width="1547px" height="1202px" viewBox="0 0 1547 1202" version="1.1" xmlns="http://www.w3.org/2000/svg" xmlns:xlink="http://www.w3.org/1999/xlink">
    <!-- Generator: Sketch 61.2 (89653) - https://sketch.com -->
    <style>
        text { font-family: 'IBM Plex Mono', monospace}
    </style>
    <title>Group Copy 2</title>
    <desc>Created with Sketch.</desc>
    <g id="Page-1" stroke="none" stroke-width="1" fill="none" fill-rule="evenodd">
        <g id="Screen-Marion-Copy" transform="translate(-507.000000, -99.000000)">
            <g id="Group-Copy-2" transform="translate(510.000000, 101.000000)">
                <g id="Group-Copy">
                    <g id="Group-49-Copy-8" stroke-width="5">
                        <path d="M1541,818.352113 C1541,1027.56041 1196.03511,1197.15634 770.498834,1197.15634 C344.964891,1197.15634 0,1027.56041 0,818.352113 C0,609.143814 344.964891,439.547887 770.498834,439.547887 C1196.03511,439.547887 1541,609.143814 1541,818.352113 Z" id="Stroke-1" stroke="#FFFFFF"></path>
                        <path d="M1541,798.104225 C1541,1007.31252 1196.03511,1176.90845 770.498834,1176.90845 C344.964891,1176.90845 0,1007.31252 0,798.104225 C0,588.895927 344.964891,419.3 770.498834,419.3 C1196.03511,419.3 1541,588.895927 1541,798.104225 Z" id="Stroke-3" stroke="#FFFFFF"></path>
                        <path d="M1541,777.856338 C1541,987.064637 1196.03511,1156.66056 770.498834,1156.66056 C344.964891,1156.66056 0,987.064637 0,777.856338 C0,568.648039 344.964891,399.052113 770.498834,399.052113 C1196.03511,399.052113 1541,568.648039 1541,777.856338 Z" id="Stroke-5" stroke="#FFFFFF"></path>
                        <path d="M1541,757.608451 C1541,966.816749 1196.03511,1136.41268 770.498834,1136.41268 C344.964891,1136.41268 0,966.816749 0,757.608451 C0,548.400152 344.964891,378.804225 770.498834,378.804225 C1196.03511,378.804225 1541,548.400152 1541,757.608451 Z" id="Stroke-7" stroke="#FFFFFF"></path>
                        <path d="M1541,737.360563 C1541,946.568862 1196.03511,1116.16479 770.498834,1116.16479 C344.964891,1116.16479 0,946.568862 0,737.360563 C0,528.152265 344.964891,358.556338 770.498834,358.556338 C1196.03511,358.556338 1541,528.152265 1541,737.360563 Z" id="Stroke-9" stroke="#FFFFFF"></path>
                        <path d="M1541,717.112676 C1541,926.320975 1196.03511,1095.9169 770.498834,1095.9169 C344.964891,1095.9169 0,926.320975 0,717.112676 C0,507.904377 344.964891,338.308451 770.498834,338.308451 C1196.03511,338.308451 1541,507.904377 1541,717.112676 Z" id="Stroke-11" stroke="#FFFFFF"></path>
                        <path d="M1541,700.239437 C1541,909.447735 1196.03511,1079.04366 770.498834,1079.04366 C344.964891,1079.04366 0,909.447735 0,700.239437 C0,491.031138 344.964891,321.435211 770.498834,321.435211 C1196.03511,321.435211 1541,491.031138 1541,700.239437 Z" id="Stroke-13" stroke="#FFFFFF"></path>
                        <path d="M1541,679.991549 C1541,889.199848 1196.03511,1058.79577 770.498834,1058.79577 C344.964891,1058.79577 0,889.199848 0,679.991549 C0,470.783251 344.964891,301.187324 770.498834,301.187324 C1196.03511,301.187324 1541,470.783251 1541,679.991549 Z" id="Stroke-15" stroke="#FFFFFF"></path>
                        <path d="M1541,658.057503 C1541,867.266445 1196.03511,1036.86056 770.498834,1036.86056 C344.964891,1036.86056 0,867.266445 0,658.057503 C0,448.848561 344.964891,279.252113 770.498834,279.252113 C1196.03511,279.252113 1541,448.848561 1541,658.057503 Z" id="Stroke-17" stroke="#FFFFFF"></path>
                        <path d="M1541,637.808451 C1541,847.016749 1196.03511,1016.61268 770.498834,1016.61268 C344.964891,1016.61268 0,847.016749 0,637.808451 C0,428.600152 344.964891,259.004225 770.498834,259.004225 C1196.03511,259.004225 1541,428.600152 1541,637.808451 Z" id="Stroke-19" stroke="#FFFFFF"></path>
                        <path d="M1541,617.561728 C1541,826.77067 1196.03511,996.364789 770.498834,996.364789 C344.964891,996.364789 0,826.77067 0,617.561728 C0,408.352786 344.964891,238.756338 770.498834,238.756338 C1196.03511,238.756338 1541,408.352786 1541,617.561728 Z" id="Stroke-21" stroke="#FFFFFF"></path>
                        <path d="M1541,597.312676 C1541,806.520975 1196.03511,976.116901 770.498834,976.116901 C344.964891,976.116901 0,806.520975 0,597.312676 C0,388.104377 344.964891,218.508451 770.498834,218.508451 C1196.03511,218.508451 1541,388.104377 1541,597.312676 Z" id="Stroke-23" stroke="#FFFFFF"></path>
                        <path d="M1541,597.312676 C1541,806.520975 1196.03511,976.116901 770.498834,976.116901 C344.964891,976.116901 0,806.520975 0,597.312676 C0,388.104377 344.964891,218.508451 770.498834,218.508451 C1196.03511,218.508451 1541,388.104377 1541,597.312676 Z" id="Stroke-25" stroke="#7551F4"></path>
                        <path d="M1541,577.064789 C1541,786.273087 1196.03511,955.869014 770.498834,955.869014 C344.964891,955.869014 0,786.273087 0,577.064789 C0,367.85649 344.964891,198.260563 770.498834,198.260563 C1196.03511,198.260563 1541,367.85649 1541,577.064789 Z" id="Stroke-27" stroke="#7551F4"></path>
                        <path d="M1541,556.816901 C1541,766.0252 1196.03511,935.621127 770.498834,935.621127 C344.964891,935.621127 0,766.0252 0,556.816901 C0,347.608603 344.964891,178.012676 770.498834,178.012676 C1196.03511,178.012676 1541,347.608603 1541,556.816901 Z" id="Stroke-29" stroke="#7551F4"></path>
                        <path d="M1541,539.943662 C1541,749.151961 1196.03511,918.747887 770.498834,918.747887 C344.964891,918.747887 0,749.151961 0,539.943662 C0,330.735363 344.964891,161.139437 770.498834,161.139437 C1196.03511,161.139437 1541,330.735363 1541,539.943662 Z" id="Stroke-31" stroke="#7551F4"></path>
                        <path d="M1541,518.008451 C1541,727.216749 1196.03511,896.812676 770.498834,896.812676 C344.964891,896.812676 0,727.216749 0,518.008451 C0,308.800152 344.964891,139.204225 770.498834,139.204225 C1196.03511,139.204225 1541,308.800152 1541,518.008451 Z" id="Stroke-33" stroke="#7551F4"></path>
                        <path d="M1541,497.760563 C1541,706.968862 1196.03511,876.564789 770.498834,876.564789 C344.964891,876.564789 0,706.968862 0,497.760563 C0,288.552265 344.964891,118.956338 770.498834,118.956338 C1196.03511,118.956338 1541,288.552265 1541,497.760563 Z" id="Stroke-35" stroke="#7551F4"></path>
                        <path d="M1541,477.512676 C1541,686.720975 1196.03511,856.316901 770.498834,856.316901 C344.964891,856.316901 0,686.720975 0,477.512676 C0,268.304377 344.964891,98.7084507 770.498834,98.7084507 C1196.03511,98.7084507 1541,268.304377 1541,477.512676 Z" id="Stroke-37" stroke="#7551F4"></path>
                        <path d="M1541,457.264789 C1541,666.473087 1196.03511,836.069014 770.498834,836.069014 C344.964891,836.069014 0,666.473087 0,457.264789 C0,248.05649 344.964891,78.4605634 770.498834,78.4605634 C1196.03511,78.4605634 1541,248.05649 1541,457.264789 Z" id="Stroke-39" stroke="#7551F4"></path>
                        <path d="M1541,437.016901 C1541,646.2252 1196.03511,815.821127 770.498834,815.821127 C344.964891,815.821127 0,646.2252 0,437.016901 C0,227.808603 344.964891,58.2126761 770.498834,58.2126761 C1196.03511,58.2126761 1541,227.808603 1541,437.016901 Z" id="Stroke-41" stroke="#7551F4"></path>
                        <path d="M1541,420.143662 C1541,629.351961 1196.03511,798.947887 770.498834,798.947887 C344.964891,798.947887 0,629.351961 0,420.143662 C0,210.935363 344.964891,41.3394366 770.498834,41.3394366 C1196.03511,41.3394366 1541,210.935363 1541,420.143662 Z" id="Stroke-43" stroke="#7551F4"></path>
                        <path d="M1541,399.895775 C1541,609.104073 1196.03511,778.7 770.498834,778.7 C344.964891,778.7 0,609.104073 0,399.895775 C0,190.687476 344.964891,21.0915493 770.498834,21.0915493 C1196.03511,21.0915493 1541,190.687476 1541,399.895775 Z" id="Stroke-45" stroke="#7551F4"></path>
                        <path d="M1541,379.647887 C1541,588.856186 1196.03511,758.452113 770.498834,758.452113 C344.964891,758.452113 0,588.856186 0,379.647887 C0,170.441918 344.964891,0.843661972 770.498834,0.843661972 C1196.03511,0.843661972 1541,170.441918 1541,379.647887 Z" id="Stroke-47" stroke="#7551F4"></path>
                    </g>
                    <text id="unity-copy-9" font-size="90" font-weight="normal" fill="#FFFFFF">
                        <tspan x="677.978516" y="622">unity</tspan>
                    </text>
                </g>
            </g>
        </g>
    </g>
</svg>
