<?xml version="1.0" encoding="UTF-8"?>
<svg width="210px" height="184px" viewBox="0 0 210 184" version="1.1" xmlns="http://www.w3.org/2000/svg" xmlns:xlink="http://www.w3.org/1999/xlink">
    <!-- Generator: Sketch 62 (91390) - https://sketch.com -->
    <title>Group 4</title>
    <desc>Created with Sketch.</desc>
    <g id="Page-1" stroke="none" stroke-width="1" fill="none" fill-rule="evenodd">
        <g id="Screen-Marion-Copy-4" transform="translate(-132.000000, -2381.000000)">
            <g id="Group-4" transform="translate(97.600000, 2344.200000)">
                <path d="M71.8684893,124.729788 L72.0484893,123.649788 L69.2734893,123.649788 L70.8484893,114.259788 L68.8834893,114.259788 L65.6884893,116.854788 L66.3034893,117.649788 L69.3484893,115.189788 L69.4684893,115.189788 L68.0434893,123.649788 L65.0434893,123.649788 L64.8634893,124.729788 L71.8684893,124.729788 Z M79.4584893,124.729788 L79.8034893,122.674788 L81.3784893,122.674788 L81.5434893,121.654788 L79.9684893,121.654788 L81.2134893,114.259788 L79.5484893,114.259788 L73.6534893,121.519788 L73.4584893,122.674788 L78.6334893,122.674788 L78.2884893,124.729788 L79.4584893,124.729788 Z M78.7984893,121.654788 L74.7784893,121.654788 L79.7734893,115.519788 L79.8334893,115.519788 L78.7984893,121.654788 Z M87.0784893,118.894788 C87.4584893,118.894788 87.7434893,118.814788 87.9334893,118.654788 C88.1234893,118.494788 88.2434893,118.279788 88.2934893,118.009788 C88.3134893,117.919788 88.3284893,117.832288 88.3384893,117.747288 C88.3484893,117.662288 88.3534893,117.589788 88.3534893,117.529788 C88.3534893,117.339788 88.2784893,117.179788 88.1284893,117.049788 C87.9784893,116.919788 87.7284893,116.854788 87.3784893,116.854788 C86.9984893,116.854788 86.7134893,116.934788 86.5234893,117.094788 C86.3334893,117.254788 86.2134893,117.469788 86.1634893,117.739788 C86.1434893,117.829788 86.1284893,117.917288 86.1184893,118.002288 C86.1084893,118.087288 86.1034893,118.159788 86.1034893,118.219788 C86.1034893,118.409788 86.1784893,118.569788 86.3284893,118.699788 C86.4784893,118.829788 86.7284893,118.894788 87.0784893,118.894788 Z M86.0884893,124.864788 C86.4684893,124.864788 86.7534893,124.784788 86.9434893,124.624788 C87.1334893,124.464788 87.2534893,124.249788 87.3034893,123.979788 C87.3234893,123.889788 87.3384893,123.802288 87.3484893,123.717288 C87.3584893,123.632288 87.3634893,123.559788 87.3634893,123.499788 C87.3634893,123.309788 87.2884893,123.149788 87.1384893,123.019788 C86.9884893,122.889788 86.7384893,122.824788 86.3884893,122.824788 C86.0084893,122.824788 85.7234893,122.904788 85.5334893,123.064788 C85.3434893,123.224788 85.2234893,123.439788 85.1734893,123.709788 C85.1534893,123.799788 85.1384893,123.887288 85.1284893,123.972288 C85.1184893,124.057288 85.1134893,124.129788 85.1134893,124.189788 C85.1134893,124.379788 85.1884893,124.539788 85.3384893,124.669788 C85.4884893,124.799788 85.7384893,124.864788 86.0884893,124.864788 Z M95.1334893,124.909788 C95.7534893,124.909788 96.2984893,124.792288 96.7684893,124.557288 C97.2384893,124.322288 97.6459893,124.007288 97.9909893,123.612288 C98.3359893,123.217288 98.6234893,122.767288 98.8534893,122.262288 C99.0834893,121.757288 99.2684893,121.234788 99.4084893,120.694788 C99.5484893,120.154788 99.6459893,119.619788 99.7009893,119.089788 C99.7559893,118.559788 99.7834893,118.074788 99.7834893,117.634788 C99.7834893,116.484788 99.5459893,115.604788 99.0709893,114.994788 C98.5959893,114.384788 97.8434893,114.079788 96.8134893,114.079788 C96.1934893,114.079788 95.6484893,114.197288 95.1784893,114.432288 C94.7084893,114.667288 94.3009893,114.982288 93.9559893,115.377288 C93.6109893,115.772288 93.3234893,116.222288 93.0934893,116.727288 C92.8634893,117.232288 92.6784893,117.754788 92.5384893,118.294788 C92.3984893,118.834788 92.3009893,119.369788 92.2459893,119.899788 C92.1909893,120.429788 92.1634893,120.914788 92.1634893,121.354788 C92.1634893,122.504788 92.4009893,123.384788 92.8759893,123.994788 C93.3509893,124.604788 94.1034893,124.909788 95.1334893,124.909788 Z M95.2234893,123.829788 C94.5634893,123.829788 94.0859893,123.634788 93.7909893,123.244788 C93.4959893,122.854788 93.3484893,122.299788 93.3484893,121.579788 C93.3484893,121.409788 93.3559893,121.219788 93.3709893,121.009788 C93.3859893,120.799788 93.4134893,120.579788 93.4534893,120.349788 L93.4534893,120.349788 L93.7384893,118.639788 C93.9184893,117.559788 94.2584893,116.709788 94.7584893,116.089788 C95.2584893,115.469788 95.9134893,115.159788 96.7234893,115.159788 C97.3834893,115.159788 97.8609893,115.354788 98.1559893,115.744788 C98.4509893,116.134788 98.5984893,116.689788 98.5984893,117.409788 C98.5984893,117.579788 98.5909893,117.769788 98.5759893,117.979788 C98.5609893,118.189788 98.5334893,118.409788 98.4934893,118.639788 L98.4934893,118.639788 L98.2084893,120.349788 C98.0284893,121.429788 97.6884893,122.279788 97.1884893,122.899788 C96.6884893,123.519788 96.0334893,123.829788 95.2234893,123.829788 Z M95.8384893,120.364788 C96.1884893,120.364788 96.4409893,120.294788 96.5959893,120.154788 C96.7509893,120.014788 96.8484893,119.829788 96.8884893,119.599788 C96.9084893,119.509788 96.9234893,119.429788 96.9334893,119.359788 C96.9434893,119.289788 96.9484893,119.229788 96.9484893,119.179788 C96.9484893,119.019788 96.8834893,118.887288 96.7534893,118.782288 C96.6234893,118.677288 96.4084893,118.624788 96.1084893,118.624788 C95.7584893,118.624788 95.5059893,118.694788 95.3509893,118.834788 C95.1959893,118.974788 95.0984893,119.159788 95.0584893,119.389788 C95.0384893,119.479788 95.0234893,119.559788 95.0134893,119.629788 C95.0034893,119.699788 94.9984893,119.759788 94.9984893,119.809788 C94.9984893,119.969788 95.0634893,120.102288 95.1934893,120.207288 C95.3234893,120.312288 95.5384893,120.364788 95.8384893,120.364788 Z M104.133489,124.909788 C104.753489,124.909788 105.298489,124.792288 105.768489,124.557288 C106.238489,124.322288 106.645989,124.007288 106.990989,123.612288 C107.335989,123.217288 107.623489,122.767288 107.853489,122.262288 C108.083489,121.757288 108.268489,121.234788 108.408489,120.694788 C108.548489,120.154788 108.645989,119.619788 108.700989,119.089788 C108.755989,118.559788 108.783489,118.074788 108.783489,117.634788 C108.783489,116.484788 108.545989,115.604788 108.070989,114.994788 C107.595989,114.384788 106.843489,114.079788 105.813489,114.079788 C105.193489,114.079788 104.648489,114.197288 104.178489,114.432288 C103.708489,114.667288 103.300989,114.982288 102.955989,115.377288 C102.610989,115.772288 102.323489,116.222288 102.093489,116.727288 C101.863489,117.232288 101.678489,117.754788 101.538489,118.294788 C101.398489,118.834788 101.300989,119.369788 101.245989,119.899788 C101.190989,120.429788 101.163489,120.914788 101.163489,121.354788 C101.163489,122.504788 101.400989,123.384788 101.875989,123.994788 C102.350989,124.604788 103.103489,124.909788 104.133489,124.909788 Z M104.223489,123.829788 C103.563489,123.829788 103.085989,123.634788 102.790989,123.244788 C102.495989,122.854788 102.348489,122.299788 102.348489,121.579788 C102.348489,121.409788 102.355989,121.219788 102.370989,121.009788 C102.385989,120.799788 102.413489,120.579788 102.453489,120.349788 L102.453489,120.349788 L102.738489,118.639788 C102.918489,117.559788 103.258489,116.709788 103.758489,116.089788 C104.258489,115.469788 104.913489,115.159788 105.723489,115.159788 C106.383489,115.159788 106.860989,115.354788 107.155989,115.744788 C107.450989,116.134788 107.598489,116.689788 107.598489,117.409788 C107.598489,117.579788 107.590989,117.769788 107.575989,117.979788 C107.560989,118.189788 107.533489,118.409788 107.493489,118.639788 L107.493489,118.639788 L107.208489,120.349788 C107.028489,121.429788 106.688489,122.279788 106.188489,122.899788 C105.688489,123.519788 105.033489,123.829788 104.223489,123.829788 Z M104.838489,120.364788 C105.188489,120.364788 105.440989,120.294788 105.595989,120.154788 C105.750989,120.014788 105.848489,119.829788 105.888489,119.599788 C105.908489,119.509788 105.923489,119.429788 105.933489,119.359788 C105.943489,119.289788 105.948489,119.229788 105.948489,119.179788 C105.948489,119.019788 105.883489,118.887288 105.753489,118.782288 C105.623489,118.677288 105.408489,118.624788 105.108489,118.624788 C104.758489,118.624788 104.505989,118.694788 104.350989,118.834788 C104.195989,118.974788 104.098489,119.159788 104.058489,119.389788 C104.038489,119.479788 104.023489,119.559788 104.013489,119.629788 C104.003489,119.699788 103.998489,119.759788 103.998489,119.809788 C103.998489,119.969788 104.063489,120.102288 104.193489,120.207288 C104.323489,120.312288 104.538489,120.364788 104.838489,120.364788 Z M124.878489,120.784788 L125.088489,119.554788 L120.798489,119.554788 L120.588489,120.784788 L124.878489,120.784788 Z M143.868489,124.729788 L144.048489,123.649788 L141.273489,123.649788 L142.848489,114.259788 L140.883489,114.259788 L137.688489,116.854788 L138.303489,117.649788 L141.348489,115.189788 L141.468489,115.189788 L140.043489,123.649788 L137.043489,123.649788 L136.863489,124.729788 L143.868489,124.729788 Z M149.073489,124.909788 C149.753489,124.909788 150.348489,124.799788 150.858489,124.579788 C151.368489,124.359788 151.795989,124.067288 152.140989,123.702288 C152.485989,123.337288 152.743489,122.914788 152.913489,122.434788 C153.083489,121.954788 153.168489,121.459788 153.168489,120.949788 C153.168489,120.099788 152.915989,119.434788 152.410989,118.954788 C151.905989,118.474788 151.228489,118.234788 150.378489,118.234788 C149.848489,118.234788 149.413489,118.334788 149.073489,118.534788 C148.733489,118.734788 148.408489,119.009788 148.098489,119.359788 L148.098489,119.359788 L148.008489,119.359788 L148.983489,115.324788 L153.618489,115.324788 L153.798489,114.259788 L148.128489,114.259788 L146.808489,120.019788 L147.828489,120.154788 C148.098489,119.904788 148.388489,119.694788 148.698489,119.524788 C149.008489,119.354788 149.413489,119.269788 149.913489,119.269788 C150.563489,119.269788 151.050989,119.424788 151.375989,119.734788 C151.700989,120.044788 151.863489,120.474788 151.863489,121.024788 C151.863489,121.154788 151.858489,121.262288 151.848489,121.347288 C151.838489,121.432288 151.823489,121.544788 151.803489,121.684788 C151.693489,122.364788 151.415989,122.892288 150.970989,123.267288 C150.525989,123.642288 149.943489,123.829788 149.223489,123.829788 C148.903489,123.829788 148.630989,123.794788 148.405989,123.724788 C148.180989,123.654788 147.983489,123.559788 147.813489,123.439788 C147.643489,123.319788 147.493489,123.174788 147.363489,123.004788 C147.233489,122.834788 147.113489,122.644788 147.003489,122.434788 L147.003489,122.434788 L145.953489,123.124788 C146.073489,123.354788 146.228489,123.574788 146.418489,123.784788 C146.608489,123.994788 146.833489,124.184788 147.093489,124.354788 C147.353489,124.524788 147.645989,124.659788 147.970989,124.759788 C148.295989,124.859788 148.663489,124.909788 149.073489,124.909788 Z M159.078489,118.894788 C159.458489,118.894788 159.743489,118.814788 159.933489,118.654788 C160.123489,118.494788 160.243489,118.279788 160.293489,118.009788 C160.313489,117.919788 160.328489,117.832288 160.338489,117.747288 C160.348489,117.662288 160.353489,117.589788 160.353489,117.529788 C160.353489,117.339788 160.278489,117.179788 160.128489,117.049788 C159.978489,116.919788 159.728489,116.854788 159.378489,116.854788 C158.998489,116.854788 158.713489,116.934788 158.523489,117.094788 C158.333489,117.254788 158.213489,117.469788 158.163489,117.739788 C158.143489,117.829788 158.128489,117.917288 158.118489,118.002288 C158.108489,118.087288 158.103489,118.159788 158.103489,118.219788 C158.103489,118.409788 158.178489,118.569788 158.328489,118.699788 C158.478489,118.829788 158.728489,118.894788 159.078489,118.894788 Z M158.088489,124.864788 C158.468489,124.864788 158.753489,124.784788 158.943489,124.624788 C159.133489,124.464788 159.253489,124.249788 159.303489,123.979788 C159.323489,123.889788 159.338489,123.802288 159.348489,123.717288 C159.358489,123.632288 159.363489,123.559788 159.363489,123.499788 C159.363489,123.309788 159.288489,123.149788 159.138489,123.019788 C158.988489,122.889788 158.738489,122.824788 158.388489,122.824788 C158.008489,122.824788 157.723489,122.904788 157.533489,123.064788 C157.343489,123.224788 157.223489,123.439788 157.173489,123.709788 C157.153489,123.799788 157.138489,123.887288 157.128489,123.972288 C157.118489,124.057288 157.113489,124.129788 157.113489,124.189788 C157.113489,124.379788 157.188489,124.539788 157.338489,124.669788 C157.488489,124.799788 157.738489,124.864788 158.088489,124.864788 Z M167.133489,124.909788 C167.753489,124.909788 168.298489,124.792288 168.768489,124.557288 C169.238489,124.322288 169.645989,124.007288 169.990989,123.612288 C170.335989,123.217288 170.623489,122.767288 170.853489,122.262288 C171.083489,121.757288 171.268489,121.234788 171.408489,120.694788 C171.548489,120.154788 171.645989,119.619788 171.700989,119.089788 C171.755989,118.559788 171.783489,118.074788 171.783489,117.634788 C171.783489,116.484788 171.545989,115.604788 171.070989,114.994788 C170.595989,114.384788 169.843489,114.079788 168.813489,114.079788 C168.193489,114.079788 167.648489,114.197288 167.178489,114.432288 C166.708489,114.667288 166.300989,114.982288 165.955989,115.377288 C165.610989,115.772288 165.323489,116.222288 165.093489,116.727288 C164.863489,117.232288 164.678489,117.754788 164.538489,118.294788 C164.398489,118.834788 164.300989,119.369788 164.245989,119.899788 C164.190989,120.429788 164.163489,120.914788 164.163489,121.354788 C164.163489,122.504788 164.400989,123.384788 164.875989,123.994788 C165.350989,124.604788 166.103489,124.909788 167.133489,124.909788 Z M167.223489,123.829788 C166.563489,123.829788 166.085989,123.634788 165.790989,123.244788 C165.495989,122.854788 165.348489,122.299788 165.348489,121.579788 C165.348489,121.409788 165.355989,121.219788 165.370989,121.009788 C165.385989,120.799788 165.413489,120.579788 165.453489,120.349788 L165.453489,120.349788 L165.738489,118.639788 C165.918489,117.559788 166.258489,116.709788 166.758489,116.089788 C167.258489,115.469788 167.913489,115.159788 168.723489,115.159788 C169.383489,115.159788 169.860989,115.354788 170.155989,115.744788 C170.450989,116.134788 170.598489,116.689788 170.598489,117.409788 C170.598489,117.579788 170.590989,117.769788 170.575989,117.979788 C170.560989,118.189788 170.533489,118.409788 170.493489,118.639788 L170.493489,118.639788 L170.208489,120.349788 C170.028489,121.429788 169.688489,122.279788 169.188489,122.899788 C168.688489,123.519788 168.033489,123.829788 167.223489,123.829788 Z M167.838489,120.364788 C168.188489,120.364788 168.440989,120.294788 168.595989,120.154788 C168.750989,120.014788 168.848489,119.829788 168.888489,119.599788 C168.908489,119.509788 168.923489,119.429788 168.933489,119.359788 C168.943489,119.289788 168.948489,119.229788 168.948489,119.179788 C168.948489,119.019788 168.883489,118.887288 168.753489,118.782288 C168.623489,118.677288 168.408489,118.624788 168.108489,118.624788 C167.758489,118.624788 167.505989,118.694788 167.350989,118.834788 C167.195989,118.974788 167.098489,119.159788 167.058489,119.389788 C167.038489,119.479788 167.023489,119.559788 167.013489,119.629788 C167.003489,119.699788 166.998489,119.759788 166.998489,119.809788 C166.998489,119.969788 167.063489,120.102288 167.193489,120.207288 C167.323489,120.312288 167.538489,120.364788 167.838489,120.364788 Z M176.133489,124.909788 C176.753489,124.909788 177.298489,124.792288 177.768489,124.557288 C178.238489,124.322288 178.645989,124.007288 178.990989,123.612288 C179.335989,123.217288 179.623489,122.767288 179.853489,122.262288 C180.083489,121.757288 180.268489,121.234788 180.408489,120.694788 C180.548489,120.154788 180.645989,119.619788 180.700989,119.089788 C180.755989,118.559788 180.783489,118.074788 180.783489,117.634788 C180.783489,116.484788 180.545989,115.604788 180.070989,114.994788 C179.595989,114.384788 178.843489,114.079788 177.813489,114.079788 C177.193489,114.079788 176.648489,114.197288 176.178489,114.432288 C175.708489,114.667288 175.300989,114.982288 174.955989,115.377288 C174.610989,115.772288 174.323489,116.222288 174.093489,116.727288 C173.863489,117.232288 173.678489,117.754788 173.538489,118.294788 C173.398489,118.834788 173.300989,119.369788 173.245989,119.899788 C173.190989,120.429788 173.163489,120.914788 173.163489,121.354788 C173.163489,122.504788 173.400989,123.384788 173.875989,123.994788 C174.350989,124.604788 175.103489,124.909788 176.133489,124.909788 Z M176.223489,123.829788 C175.563489,123.829788 175.085989,123.634788 174.790989,123.244788 C174.495989,122.854788 174.348489,122.299788 174.348489,121.579788 C174.348489,121.409788 174.355989,121.219788 174.370989,121.009788 C174.385989,120.799788 174.413489,120.579788 174.453489,120.349788 L174.453489,120.349788 L174.738489,118.639788 C174.918489,117.559788 175.258489,116.709788 175.758489,116.089788 C176.258489,115.469788 176.913489,115.159788 177.723489,115.159788 C178.383489,115.159788 178.860989,115.354788 179.155989,115.744788 C179.450989,116.134788 179.598489,116.689788 179.598489,117.409788 C179.598489,117.579788 179.590989,117.769788 179.575989,117.979788 C179.560989,118.189788 179.533489,118.409788 179.493489,118.639788 L179.493489,118.639788 L179.208489,120.349788 C179.028489,121.429788 178.688489,122.279788 178.188489,122.899788 C177.688489,123.519788 177.033489,123.829788 176.223489,123.829788 Z M176.838489,120.364788 C177.188489,120.364788 177.440989,120.294788 177.595989,120.154788 C177.750989,120.014788 177.848489,119.829788 177.888489,119.599788 C177.908489,119.509788 177.923489,119.429788 177.933489,119.359788 C177.943489,119.289788 177.948489,119.229788 177.948489,119.179788 C177.948489,119.019788 177.883489,118.887288 177.753489,118.782288 C177.623489,118.677288 177.408489,118.624788 177.108489,118.624788 C176.758489,118.624788 176.505989,118.694788 176.350989,118.834788 C176.195989,118.974788 176.098489,119.159788 176.058489,119.389788 C176.038489,119.479788 176.023489,119.559788 176.013489,119.629788 C176.003489,119.699788 175.998489,119.759788 175.998489,119.809788 C175.998489,119.969788 176.063489,120.102288 176.193489,120.207288 C176.323489,120.312288 176.538489,120.364788 176.838489,120.364788 Z" id="14:00-15:00" fill="#FFFFFF" fill-rule="nonzero" opacity="0.6" transform="translate(122.823489, 119.494788) rotate(-39.000000) translate(-122.823489, -119.494788) "></path>
                <path d="M133.747383,147.691543 L133.927383,146.611543 L128.962383,146.611543 L130.522383,137.221543 L129.307383,137.221543 L127.552383,147.691543 L133.747383,147.691543 Z M138.727383,147.871543 C139.357383,147.871543 139.872383,147.691543 140.272383,147.331543 C140.672383,146.971543 141.017383,146.481543 141.307383,145.861543 L141.307383,145.861543 L141.367383,145.861543 L141.067383,147.691543 L142.237383,147.691543 L143.527383,139.951543 L142.357383,139.951543 L141.637383,144.226543 C141.597383,144.446543 141.537383,144.654043 141.457383,144.849043 C141.377383,145.044043 141.292383,145.219043 141.202383,145.374043 C141.112383,145.529043 141.024883,145.659043 140.939883,145.764043 C140.854883,145.869043 140.792383,145.946543 140.752383,145.996543 C140.532383,146.256543 140.289883,146.461543 140.024883,146.611543 C139.759883,146.761543 139.457383,146.836543 139.117383,146.836543 C138.677383,146.836543 138.352383,146.704043 138.142383,146.439043 C137.932383,146.174043 137.827383,145.811543 137.827383,145.351543 C137.827383,145.271543 137.832383,145.159043 137.842383,145.014043 C137.852383,144.869043 137.872383,144.706543 137.902383,144.526543 L137.902383,144.526543 L138.667383,139.951543 L137.497383,139.951543 L136.717383,144.631543 C136.657383,144.981543 136.627383,145.316543 136.627383,145.636543 C136.627383,146.346543 136.814883,146.896543 137.189883,147.286543 C137.564883,147.676543 138.077383,147.871543 138.727383,147.871543 Z M146.437383,147.691543 L147.157383,143.416543 C147.197383,143.196543 147.257383,142.989043 147.337383,142.794043 C147.417383,142.599043 147.502383,142.424043 147.592383,142.269043 C147.682383,142.114043 147.769883,141.984043 147.854883,141.879043 C147.939883,141.774043 148.002383,141.696543 148.042383,141.646543 C148.262383,141.386543 148.504883,141.181543 148.769883,141.031543 C149.034883,140.881543 149.337383,140.806543 149.677383,140.806543 C150.117383,140.806543 150.442383,140.939043 150.652383,141.204043 C150.862383,141.469043 150.967383,141.831543 150.967383,142.291543 C150.967383,142.371543 150.962383,142.484043 150.952383,142.629043 C150.942383,142.774043 150.922383,142.936543 150.892383,143.116543 L150.892383,143.116543 L150.127383,147.691543 L151.297383,147.691543 L152.077383,143.011543 C152.107383,142.841543 152.129883,142.669043 152.144883,142.494043 C152.159883,142.319043 152.167383,142.156543 152.167383,142.006543 C152.167383,141.296543 151.979883,140.746543 151.604883,140.356543 C151.229883,139.966543 150.717383,139.771543 150.067383,139.771543 C149.437383,139.771543 148.922383,139.951543 148.522383,140.311543 C148.122383,140.671543 147.777383,141.161543 147.487383,141.781543 L147.487383,141.781543 L147.427383,141.781543 L147.727383,139.951543 L146.557383,139.951543 L145.267383,147.691543 L146.437383,147.691543 Z M157.432383,147.871543 C157.832383,147.871543 158.199883,147.819043 158.534883,147.714043 C158.869883,147.609043 159.179883,147.456543 159.464883,147.256543 C159.749883,147.056543 160.017383,146.804043 160.267383,146.499043 C160.517383,146.194043 160.762383,145.846543 161.002383,145.456543 L161.002383,145.456543 L160.162383,144.961543 C159.852383,145.381543 159.577383,145.716543 159.337383,145.966543 C159.097383,146.216543 158.874883,146.406543 158.669883,146.536543 C158.464883,146.666543 158.274883,146.751543 158.099883,146.791543 C157.924883,146.831543 157.752383,146.851543 157.582383,146.851543 C157.012383,146.851543 156.554883,146.694043 156.209883,146.379043 C155.864883,146.064043 155.692383,145.576543 155.692383,144.916543 C155.692383,144.816543 155.697383,144.716543 155.707383,144.616543 C155.717383,144.516543 155.737383,144.376543 155.767383,144.196543 L155.767383,144.196543 L155.917383,143.296543 C156.057383,142.486543 156.334883,141.866543 156.749883,141.436543 C157.164883,141.006543 157.702383,140.791543 158.362383,140.791543 C158.842383,140.791543 159.229883,140.876543 159.524883,141.046543 C159.819883,141.216543 160.042383,141.541543 160.192383,142.021543 L160.192383,142.021543 L161.197383,141.631543 C161.127383,141.381543 161.024883,141.141543 160.889883,140.911543 C160.754883,140.681543 160.577383,140.484043 160.357383,140.319043 C160.137383,140.154043 159.874883,140.021543 159.569883,139.921543 C159.264883,139.821543 158.907383,139.771543 158.497383,139.771543 C157.947383,139.771543 157.429883,139.884043 156.944883,140.109043 C156.459883,140.334043 156.037383,140.656543 155.677383,141.076543 C155.317383,141.496543 155.032383,142.004043 154.822383,142.599043 C154.612383,143.194043 154.507383,143.861543 154.507383,144.601543 C154.507383,145.081543 154.569883,145.524043 154.694883,145.929043 C154.819883,146.334043 155.004883,146.679043 155.249883,146.964043 C155.494883,147.249043 155.799883,147.471543 156.164883,147.631543 C156.529883,147.791543 156.952383,147.871543 157.432383,147.871543 Z M164.437383,147.691543 L165.157383,143.416543 C165.197383,143.196543 165.257383,142.989043 165.337383,142.794043 C165.417383,142.599043 165.502383,142.424043 165.592383,142.269043 C165.682383,142.114043 165.769883,141.984043 165.854883,141.879043 C165.939883,141.774043 166.002383,141.696543 166.042383,141.646543 C166.262383,141.386543 166.504883,141.181543 166.769883,141.031543 C167.034883,140.881543 167.337383,140.806543 167.677383,140.806543 C168.117383,140.806543 168.442383,140.939043 168.652383,141.204043 C168.862383,141.469043 168.967383,141.831543 168.967383,142.291543 C168.967383,142.371543 168.962383,142.484043 168.952383,142.629043 C168.942383,142.774043 168.922383,142.936543 168.892383,143.116543 L168.892383,143.116543 L168.127383,147.691543 L169.297383,147.691543 L170.077383,143.011543 C170.107383,142.841543 170.129883,142.669043 170.144883,142.494043 C170.159883,142.319043 170.167383,142.156543 170.167383,142.006543 C170.167383,141.296543 169.979883,140.746543 169.604883,140.356543 C169.229883,139.966543 168.717383,139.771543 168.067383,139.771543 C167.437383,139.771543 166.922383,139.951543 166.522383,140.311543 C166.122383,140.671543 165.777383,141.161543 165.487383,141.781543 L165.487383,141.781543 L165.427383,141.781543 L166.297383,136.591543 L165.127383,136.591543 L163.267383,147.691543 L164.437383,147.691543 Z" id="Lunch" fill="#FFFFFF" fill-rule="nonzero" opacity="0.6" transform="translate(148.859883, 142.231543) rotate(-36.000000) translate(-148.859883, -142.231543) "></path>
                <ellipse id="Oval" stroke="#979797" stroke-width="0.6" transform="translate(139.000000, 129.100000) rotate(-36.000000) translate(-139.000000, -129.100000) " cx="139" cy="129.1" rx="117" ry="74.1"></ellipse>
            </g>
        </g>
    </g>
</svg>