<svg xmlns="http://www.w3.org/2000/svg" viewBox="0 0 3067.64 2386.2"><defs><style>.cls-1{fill:#fff;}.cls-2{fill:#695ea9;}</style></defs><title>sAsset 1</title><g id="Layer_2" data-name="Layer 2"><g id="Layer_1-2" data-name="Layer 1"><path class="cls-1" d="M1193.85,1281.28h-1.56a63.38,63.38,0,0,1-6.41,12,41,41,0,0,1-9.52,10,45.48,45.48,0,0,1-13.12,6.73,55.56,55.56,0,0,1-17.49,2.5q-24.36,0-39.34-15.93t-15-45.3V1147.62h34v98.68q0,38.43,33.42,38.41a47.83,47.83,0,0,0,12.8-1.72,37.15,37.15,0,0,0,11.25-5.14,26.07,26.07,0,0,0,8-8.6,24.23,24.23,0,0,0,3-12.33v-109.3h34v161.15h-34Z"/><path class="cls-1" d="M1280.35,1308.77V1147.62h34v27.47H1316a63.83,63.83,0,0,1,6.41-12,41.29,41.29,0,0,1,9.52-10,45.89,45.89,0,0,1,13.11-6.71,55.3,55.3,0,0,1,17.49-2.51q24.36,0,39.36,15.94t15,45.28v103.69h-34v-98.7q0-38.41-33.41-38.41a48.13,48.13,0,0,0-12.8,1.72,36.84,36.84,0,0,0-11.25,5.16,25.57,25.57,0,0,0-8,8.74,24.53,24.53,0,0,0-3,12.18v109.31Z"/><path class="cls-1" d="M1473.05,1281h55V1175.41h-55v-27.79h89V1281h51.54v27.8H1473.05Zm72.14-162.71q-13.12,0-18.27-5.32a18.09,18.09,0,0,1-5.16-13.11v-6.56a18.12,18.12,0,0,1,5.16-13.11q5.14-5.31,17.95-5.31c8.76,0,14.83,1.77,18.29,5.31a18.07,18.07,0,0,1,5.15,13.11v6.56a18,18,0,0,1-5.15,13.11Q1558,1118.26,1545.19,1118.26Z"/><path class="cls-1" d="M1732.26,1308.77q-21.24,0-31.22-11.37T1691,1268v-92.54h-49.65v-27.79h35.3q9,0,12.79-3.6c2.51-2.39,3.75-6.72,3.75-13v-40.29h31.86v56.85h68.71v27.79h-68.71V1281h68.71v27.8Z"/><path class="cls-1" d="M1957.12,1147.62h34.34L1913.39,1340q-6.24,15.62-16.4,23.43t-29.2,7.81h-27.16v-27.79h38.1l14.68-36.87-65-159h35.61l25.6,67.46,20,55.28h1.87l20-55.28Z"/><path class="cls-1" d="M1533.82,2386.2C688.07,2386.2,0,2046.53,0,1629S688.07,871.86,1533.82,871.86,3067.64,1211.52,3067.64,1629,2379.56,2386.2,1533.82,2386.2Zm0-1504.58C693.45,881.62,9.76,1216.91,9.76,1629s683.69,747.42,1524.06,747.42S3057.88,2041.14,3057.88,1629,2374.19,881.62,1533.82,881.62Z"/><path class="cls-1" d="M1533.82,2346.61C688.07,2346.61,0,2006.94,0,1589.43S688.07,832.27,1533.82,832.27s1533.82,339.66,1533.82,757.16S2379.56,2346.61,1533.82,2346.61Zm0-1504.58C693.45,842,9.76,1177.32,9.76,1589.43s683.69,747.42,1524.06,747.42,1524.06-335.3,1524.06-747.42S2374.19,842,1533.82,842Z"/><path class="cls-1" d="M1533.82,2307C688.07,2307,0,1967.35,0,1549.84S688.07,792.67,1533.82,792.67s1533.82,339.66,1533.82,757.17S2379.56,2307,1533.82,2307Zm0-1504.58C693.45,802.43,9.76,1137.71,9.76,1549.84s683.69,747.41,1524.06,747.41S3057.88,1962,3057.88,1549.84,2374.19,802.43,1533.82,802.43Z"/><path class="cls-1" d="M1533.82,2267.4C688.07,2267.4,0,1927.74,0,1510.24S688.07,753.08,1533.82,753.08s1533.82,339.66,1533.82,757.16S2379.56,2267.4,1533.82,2267.4Zm0-1504.56c-840.37,0-1524.06,335.28-1524.06,747.4s683.69,747.4,1524.06,747.4,1524.06-335.28,1524.06-747.4S2374.19,762.84,1533.82,762.84Z"/><path class="cls-1" d="M1533.82,2227.81C688.07,2227.81,0,1888.15,0,1470.65S688.07,713.48,1533.82,713.48s1533.82,339.67,1533.82,757.17S2379.56,2227.81,1533.82,2227.81Zm0-1504.57C693.45,723.24,9.76,1058.53,9.76,1470.65s683.69,747.4,1524.06,747.4,1524.06-335.29,1524.06-747.4S2374.19,723.24,1533.82,723.24Z"/><path class="cls-1" d="M1533.82,2188.22C688.07,2188.22,0,1848.56,0,1431.06S688.07,673.88,1533.82,673.88s1533.82,339.67,1533.82,757.18S2379.56,2188.22,1533.82,2188.22Zm0-1504.58C693.45,683.64,9.76,1018.93,9.76,1431.06s683.69,747.4,1524.06,747.4,1524.06-335.29,1524.06-747.4S2374.19,683.64,1533.82,683.64Z"/><path class="cls-1" d="M1533.82,2148.63C688.07,2148.63,0,1809,0,1391.47S688.07,634.29,1533.82,634.29,3067.64,974,3067.64,1391.47,2379.56,2148.63,1533.82,2148.63Zm0-1504.58C693.45,644.05,9.76,979.34,9.76,1391.47s683.69,747.4,1524.06,747.4,1524.06-335.29,1524.06-747.4S2374.19,644.05,1533.82,644.05Z"/><path class="cls-1" d="M1533.82,2109C688.07,2109,0,1769.38,0,1351.86S688.07,594.7,1533.82,594.7s1533.82,339.66,1533.82,757.16S2379.56,2109,1533.82,2109Zm0-1504.58C693.45,604.46,9.76,939.75,9.76,1351.86s683.69,747.42,1524.06,747.42S3057.88,1764,3057.88,1351.86,2374.19,604.46,1533.82,604.46Z"/><path class="cls-1" d="M1533.82,2069.45C688.07,2069.45,0,1729.78,0,1312.27S688.07,555.11,1533.82,555.11s1533.82,339.66,1533.82,757.16S2379.56,2069.45,1533.82,2069.45Zm0-1504.58C693.45,564.87,9.76,900.16,9.76,1312.27s683.69,747.42,1524.06,747.42,1524.06-335.29,1524.06-747.42S2374.19,564.87,1533.82,564.87Z"/><path class="cls-1" d="M1533.82,2029.86C688.07,2029.86,0,1690.19,0,1272.68S688.07,515.51,1533.82,515.51s1533.82,339.66,1533.82,757.17S2379.56,2029.86,1533.82,2029.86Zm0-1504.59C693.45,525.27,9.76,860.56,9.76,1272.68S693.45,2020.1,1533.82,2020.1s1524.06-335.29,1524.06-747.42S2374.19,525.27,1533.82,525.27Z"/><path class="cls-1" d="M1533.82,1990.24C688.07,1990.24,0,1650.58,0,1233.09S688.07,475.92,1533.82,475.92s1533.82,339.66,1533.82,757.17S2379.56,1990.24,1533.82,1990.24Zm0-1504.56C693.45,485.68,9.76,821,9.76,1233.09s683.69,747.4,1524.06,747.4,1524.06-335.28,1524.06-747.4S2374.19,485.68,1533.82,485.68Z"/><path class="cls-2" d="M1533.82,1949.87C688.07,1949.87,0,1610.21,0,1192.71S688.07,435.53,1533.82,435.53,3067.64,775.2,3067.64,1192.71,2379.56,1949.87,1533.82,1949.87Zm0-1504.58C693.45,445.29,9.76,780.58,9.76,1192.71s683.69,747.4,1524.06,747.4,1524.06-335.29,1524.06-747.4S2374.19,445.29,1533.82,445.29Z"/><path class="cls-2" d="M1533.82,1910.28C688.07,1910.28,0,1570.62,0,1153.11S688.07,395.94,1533.82,395.94s1533.82,339.67,1533.82,757.17S2379.56,1910.28,1533.82,1910.28Zm0-1504.58C693.45,405.7,9.76,741,9.76,1153.11s683.69,747.41,1524.06,747.41,1524.06-335.29,1524.06-747.41S2374.19,405.7,1533.82,405.7Z"/><path class="cls-2" d="M1533.82,1870.69C688.07,1870.69,0,1531,0,1113.52S688.07,356.35,1533.82,356.35,3067.64,696,3067.64,1113.52,2379.56,1870.69,1533.82,1870.69Zm0-1504.58C693.45,366.11,9.76,701.4,9.76,1113.52s683.69,747.41,1524.06,747.41,1524.06-335.29,1524.06-747.41S2374.19,366.11,1533.82,366.11Z"/><path class="cls-2" d="M1533.82,1831.09C688.07,1831.09,0,1491.43,0,1073.92S688.07,316.75,1533.82,316.75s1533.82,339.66,1533.82,757.17S2379.56,1831.09,1533.82,1831.09Zm0-1504.58C693.45,326.51,9.76,661.8,9.76,1073.92s683.69,747.41,1524.06,747.41S3057.88,1486,3057.88,1073.92,2374.19,326.51,1533.82,326.51Z"/><path class="cls-2" d="M1533.82,1791.5C688.07,1791.5,0,1451.83,0,1034.32S688.07,277.16,1533.82,277.16s1533.82,339.66,1533.82,757.16S2379.56,1791.5,1533.82,1791.5Zm0-1504.58C693.45,286.92,9.76,622.21,9.76,1034.32s683.69,747.42,1524.06,747.42,1524.06-335.29,1524.06-747.42S2374.19,286.92,1533.82,286.92Z"/><path class="cls-2" d="M1533.82,1751.91C688.07,1751.91,0,1412.24,0,994.73S688.07,237.57,1533.82,237.57,3067.64,577.23,3067.64,994.73,2379.56,1751.91,1533.82,1751.91Zm0-1504.58C693.45,247.33,9.76,582.62,9.76,994.73s683.69,747.42,1524.06,747.42,1524.06-335.29,1524.06-747.42S2374.19,247.33,1533.82,247.33Z"/><path class="cls-2" d="M1533.82,1712.3C688.07,1712.3,0,1372.64,0,955.14S688.07,198,1533.82,198,3067.64,537.64,3067.64,955.14,2379.56,1712.3,1533.82,1712.3Zm0-1504.56C693.45,207.74,9.76,543,9.76,955.14s683.69,747.4,1524.06,747.4,1524.06-335.28,1524.06-747.4S2374.19,207.74,1533.82,207.74Z"/><path class="cls-2" d="M1533.82,1672.71C688.07,1672.71,0,1333.05,0,915.55S688.07,158.38,1533.82,158.38,3067.64,498,3067.64,915.55,2379.56,1672.71,1533.82,1672.71Zm0-1504.58C693.45,168.13,9.76,503.42,9.76,915.55S693.45,1663,1533.82,1663s1524.06-335.28,1524.06-747.4S2374.19,168.13,1533.82,168.13Z"/><path class="cls-2" d="M1533.82,1633.12C688.07,1633.12,0,1293.46,0,876S688.07,118.78,1533.82,118.78,3067.64,458.45,3067.64,876,2379.56,1633.12,1533.82,1633.12Zm0-1504.58C693.45,128.54,9.76,463.83,9.76,876s683.69,747.41,1524.06,747.41S3057.88,1288.07,3057.88,876,2374.19,128.54,1533.82,128.54Z"/><path class="cls-2" d="M1533.82,1593.53C688.07,1593.53,0,1253.87,0,836.36S688.07,79.19,1533.82,79.19,3067.64,418.85,3067.64,836.36,2379.56,1593.53,1533.82,1593.53Zm0-1504.58C693.45,89,9.76,424.24,9.76,836.36s683.69,747.41,1524.06,747.41,1524.06-335.29,1524.06-747.41S2374.19,89,1533.82,89Z"/><path class="cls-2" d="M1533.82,1553.93C688.07,1553.93,0,1214.27,0,796.77S688.07,39.59,1533.82,39.59,3067.64,379.25,3067.64,796.77,2379.56,1553.93,1533.82,1553.93Zm0-1504.58C693.45,49.35,9.76,384.64,9.76,796.77s683.69,747.4,1524.06,747.4,1524.06-335.29,1524.06-747.4S2374.19,49.35,1533.82,49.35Z"/><path class="cls-2" d="M1533.82,1514.34C688.07,1514.34,0,1174.68,0,757.17S688.07,0,1533.82,0,3067.64,339.66,3067.64,757.17,2379.56,1514.34,1533.82,1514.34Zm0-1504.58C693.45,9.76,9.76,345.05,9.76,757.17s683.69,747.41,1524.06,747.41,1524.06-335.29,1524.06-747.41S2374.19,9.76,1533.82,9.76Z"/></g></g></svg>