<?xml version="1.0" encoding="UTF-8"?>
<svg width="277px" height="50px" viewBox="0 0 277 50" version="1.1" xmlns="http://www.w3.org/2000/svg" xmlns:xlink="http://www.w3.org/1999/xlink">
    <!-- Generator: Sketch 61.2 (89653) - https://sketch.com -->
    <style>
        text { font-family: 'IBM Plex Mono', monospace}
    </style>
    <title>Group 8 Copy 16</title>
    <desc>Created with Sketch.</desc>
    <defs>
        <polygon id="path-1" points="0.0002744 0.000686 277.606364 0.000686 277.606364 49.7993739 0.0002744 49.7993739"></polygon>
    </defs>
    <g id="Page-1" stroke="none" stroke-width="1" fill="none" fill-rule="evenodd">
        <g id="Screen-Marion-Copy" transform="translate(-139.000000, -98.000000)">
            <g id="Group-8-Copy-16" transform="translate(139.000000, 98.000000)">
                <g id="Group-8-Copy-15">
                    <mask id="mask-2" fill="white">
                        <use xlink:href="#path-1"></use>
                    </mask>
                    <g id="Clip-1"></g>
                    <text id="Women-in-Tech" mask="url(#mask-2)" font-family=".SFNSDisplay, .SF NS Display" font-size="24.696" font-weight="normal" fill="#FFFFFF">
                        <tspan x="84.980994" y="16.6830139">Women in Tech</tspan>
                    </text>
                    <text id="Summit-2020" mask="url(#mask-2)" font-size="24.696" font-weight="normal" fill="#FFFFFF">
                        <tspan x="84.980994" y="42.2433739">Summit 2020</tspan>
                    </text>
                    <path d="M37.8398972,30.1663012 C39.0815572,30.1663012 40.0940932,31.1774652 40.0940932,32.4191252 C40.0940932,33.6621572 39.0815572,34.6733212 37.8398972,34.6733212 C36.5982372,34.6733212 35.5857012,33.6621572 35.5857012,32.4191252 C35.5857012,31.1774652 36.5982372,30.1663012 37.8398972,30.1663012 M28.6118252,34.6733212 C27.3687932,34.6733212 26.3590012,33.6621572 26.3590012,32.4191252 C26.3590012,31.1774652 27.3687932,30.1663012 28.6118252,30.1663012 C29.8548572,30.1663012 30.8660212,31.1774652 30.8660212,32.4191252 C30.8660212,33.6621572 29.8548572,34.6733212 28.6118252,34.6733212 M37.8398972,35.8985172 C39.7579532,35.8985172 41.3192892,34.3385532 41.3192892,32.4191252 C41.3192892,30.5010692 39.7579532,28.9397332 37.8398972,28.9397332 C36.4980812,28.9397332 35.3332532,29.7039372 34.7528972,30.8180012 C33.8117052,30.2678292 32.6400172,30.2692012 31.6988252,30.8180012 C31.1198412,29.7039372 29.9536412,28.9397332 28.6118252,28.9397332 C26.6937692,28.9397332 25.1324332,30.5010692 25.1324332,32.4191252 C25.1324332,34.3385532 26.6937692,35.8985172 28.6118252,35.8985172 C30.5312532,35.8985172 32.0925892,34.3385532 32.0925892,32.4191252 C32.0925892,32.2942732 32.0843572,32.1694212 32.0720092,32.0473132 C32.7374292,31.4902812 33.7142932,31.4902812 34.3810852,32.0473132 C34.3673652,32.1694212 34.3605052,32.2942732 34.3605052,32.4191252 C34.3605052,34.3385532 35.9218412,35.8985172 37.8398972,35.8985172" id="Fill-2" fill="#FFFFFF" mask="url(#mask-2)"></path>
                    <path d="M44.9450736,27.3941752 C44.6061896,27.3941752 44.3317896,27.6685752 44.3317896,28.0074592 C44.3317896,37.0585432 35.3808616,46.2962192 33.3352096,48.2897352 C31.8109176,46.8052312 26.4518856,41.3076272 23.8245056,34.8633432 C23.7312096,34.6328472 23.5075736,34.4819272 23.2578696,34.4819272 C23.0095376,34.4819272 22.7845296,34.6328472 22.6898616,34.8633432 C20.0679696,41.3007672 14.7061936,46.8038592 13.1805296,48.2883632 C11.1321336,46.2948472 2.1839496,37.0571712 2.1839496,28.0074592 C2.1839496,27.6685752 1.9095496,27.3941752 1.5706656,27.3941752 C1.2331536,27.3941752 0.9573816,27.6685752 0.9573816,28.0074592 C0.9573816,32.5213392 2.9508976,37.5305112 6.8803056,42.8950312 C9.7848296,46.8601112 12.6468216,49.4792592 12.7661856,49.5890192 C13.0007976,49.8016792 13.3588896,49.8016792 13.5907576,49.5890192 C13.8624136,49.3420592 19.9143056,43.7854592 23.2578696,36.6249912 C26.6014336,43.7854592 32.6533256,49.3420592 32.9236096,49.5890192 C33.0402296,49.6960352 33.1884056,49.7481712 33.3365816,49.7481712 C33.4833856,49.7481712 33.6315616,49.6960352 33.7495536,49.5890192 C33.8702896,49.4792592 36.7309096,46.8601112 39.6354336,42.8950312 C43.5648416,37.5305112 45.5569856,32.5213392 45.5569856,28.0074592 C45.5569856,27.6685752 45.2839576,27.3941752 44.9450736,27.3941752" id="Fill-3" fill="#FFFFFF" mask="url(#mask-2)"></path>
                    <path d="M14.7731472,32.8589884 C15.0118752,33.0990884 15.4001512,33.0990884 15.6402512,32.8589884 C16.7598032,31.7394364 18.5818192,31.7394364 19.7027432,32.8589884 C19.8234792,32.9783524 19.9798872,33.0387204 20.1362952,33.0387204 C20.2927032,33.0387204 20.4504832,32.9783524 20.5698472,32.8589884 C20.8085752,32.6188884 20.8085752,32.2319844 20.5698472,31.9918844 C18.9714672,30.3935044 16.3701552,30.3935044 14.7731472,31.9918844 C14.5330472,32.2319844 14.5330472,32.6202604 14.7731472,32.8589884" id="Fill-4" fill="#FFFFFF" mask="url(#mask-2)"></path>
                    <path d="M5.7894284,31.9921588 C5.5493284,32.2322588 5.5493284,32.6205348 5.7894284,32.8592628 C6.0281564,33.0979908 6.4164324,33.0979908 6.6565324,32.8592628 C7.7760844,31.7397108 9.5981004,31.7397108 10.7190244,32.8592628 C10.8383884,32.9786268 10.9947964,33.0389948 11.1512044,33.0389948 C11.3089844,33.0389948 11.4667644,32.9786268 11.5861284,32.8592628 C11.8248564,32.6205348 11.8248564,32.2322588 11.5861284,31.9921588 C9.9877484,30.3937788 7.3864364,30.3937788 5.7894284,31.9921588" id="Fill-5" fill="#FFFFFF" mask="url(#mask-2)"></path>
                    <path d="M33.2254496,10.0907856 C28.4152176,10.0907856 23.8052976,11.8565496 20.2312376,15.0656576 C19.3051376,14.4811856 18.2926016,13.9790336 17.2128376,13.5742936 C16.2318576,13.2065976 15.1877656,12.9870776 14.1779736,12.7744176 C12.3381216,12.3875136 10.6011696,12.0225616 9.2703296,10.8330376 C8.1343136,9.8150136 7.5073096,8.4183176 7.5073096,6.8981416 C7.5073096,3.7713536 10.0509976,1.2262936 13.1791576,1.2262936 C16.3073176,1.2262936 18.8510056,3.7713536 18.8510056,6.8981416 C18.8510056,8.3895056 18.2761376,9.7985496 17.2334176,10.8645936 C16.9960616,11.1060656 17.0001776,11.4943416 17.2430216,11.7316976 C17.4844936,11.9690536 17.8727696,11.9635656 18.1087536,11.7220936 C19.3778536,10.4255536 20.0775736,8.7119256 20.0775736,6.8981416 C20.0775736,3.0949576 16.9823416,-0.0002744 13.1791576,-0.0002744 C9.3759736,-0.0002744 6.2807416,3.0949576 6.2807416,6.8981416 C6.2807416,8.7448536 7.0723856,10.5106176 8.4526176,11.7467896 C10.0276736,13.1544616 12.0088416,13.5715496 13.9255256,13.9749176 C14.9353176,14.1862056 15.8874856,14.3865176 16.7834016,14.7226576 C19.2310496,15.6405256 21.2904216,17.0797536 22.7365096,18.8825616 C24.2813816,20.8074776 25.1333936,23.2455216 25.1333936,25.7494216 C25.1333936,26.0869336 25.4077936,26.3627056 25.7453056,26.3627056 C25.8536936,26.3627056 36.4757176,26.3627056 36.8585056,26.3627056 L36.8722256,26.3627056 C37.0821416,26.3627056 37.2838256,26.2556896 37.3990736,26.0636096 C37.6213376,25.6917976 37.8093016,25.2952896 37.9588496,24.8836896 C38.3443816,23.8245056 38.4623736,22.7076976 38.3169416,21.6169576 C39.3047816,22.7227896 39.8480936,24.2004336 39.7644016,25.7151216 C39.7561696,25.8783896 39.8165376,26.0389136 39.9262976,26.1596496 C40.0360576,26.2803856 40.1938376,26.3531016 40.3571056,26.3613336 C40.3667096,26.3613336 40.3763136,26.3627056 40.3859176,26.3627056 L44.9450736,26.3627056 C45.2839576,26.3627056 45.5569856,26.0869336 45.5569856,25.7494216 C45.5569856,25.4105376 45.2839576,25.1361376 44.9450736,25.1361376 L40.9937136,25.1361376 C40.8976736,22.7804136 39.5778096,20.5810976 37.5088336,19.4094096 C37.2769656,19.2790696 36.9888456,19.3106256 36.7940216,19.4889856 C36.5964536,19.6687176 36.5388296,19.9527216 36.6472176,20.1941936 C37.2577576,21.5497296 37.3153816,23.0671616 36.8063696,24.4652296 C36.7226776,24.6957256 36.6238936,24.9221056 36.5113896,25.1402536 C36.2232696,25.1361376 35.7924616,25.1361376 35.1339016,25.1361376 L26.3421256,25.1361376 C26.2159016,22.5718696 25.2856856,20.0995256 23.6941656,18.1156136 C23.0040496,17.2553696 22.1904536,16.4733296 21.2725856,15.7818416 C24.5887096,12.8992696 28.8185856,11.3173536 33.2254496,11.3173536 C43.2808376,11.3173536 51.4620736,19.4972176 51.4620736,29.5539776 L51.4620736,33.4984776 L47.5162016,33.4984776 C47.1786896,33.4984776 46.9042896,33.7728776 46.9042896,34.1117616 C46.9042896,34.4506456 47.1786896,34.7250456 47.5162016,34.7250456 L52.0753576,34.7250456 C52.4128696,34.7250456 52.6886416,34.4506456 52.6886416,34.1117616 L52.6886416,29.5539776 C52.6886416,18.8221936 43.9572336,10.0907856 33.2254496,10.0907856" id="Fill-6" fill="#FFFFFF" mask="url(#mask-2)"></path>
                    <path d="M17.1365544,17.1895136 C17.3162864,16.9027656 17.2271064,16.5240936 16.9403584,16.3443616 C16.6536104,16.1646296 16.2763104,16.2524376 16.0965784,16.5405576 C12.8490544,21.7431816 7.3308704,24.9193616 1.2433064,25.1237896 C1.4916384,20.4521296 4.5086664,16.2661576 8.9059264,14.5813416 C9.2214864,14.4606056 9.3806384,14.1066296 9.2599024,13.7896976 C9.1391664,13.4741376 8.7838184,13.3163576 8.4682584,13.4370936 C6.0041464,14.3810296 3.8981264,16.0260576 2.3765784,18.1965616 C0.8221024,20.4164576 0.0002744,23.0287456 0.0002744,25.7494216 C0.0002744,25.9963816 0.1498224,26.2200176 0.3789464,26.3146856 C0.4544064,26.3462416 0.5339824,26.3613336 0.6135584,26.3613336 C0.6231624,26.3613336 0.6327664,26.3613336 0.6423704,26.3599616 C7.3912384,26.3517296 13.5570064,22.9244736 17.1365544,17.1895136" id="Fill-7" fill="#FFFFFF" mask="url(#mask-2)"></path>
                </g>
            </g>
        </g>
    </g>
</svg>
