<?xml version="1.0" encoding="UTF-8"?>
<svg width="276px" height="52px" viewBox="0 0 276 52" version="1.1" xmlns="http://www.w3.org/2000/svg" xmlns:xlink="http://www.w3.org/1999/xlink">
    <!-- Generator: Sketch 62 (91390) - https://sketch.com -->
    <title>Group 8</title>
    <desc>Created with Sketch.</desc>
    <g id="Page-1" stroke="none" stroke-width="1" fill="none" fill-rule="evenodd">
        <g id="Screen-Marion-Copy-4" transform="translate(-139.000000, -96.000000)" fill="#FFFFFF">
            <g id="Group-8" transform="translate(139.000274, 96.210406)">
                <g id="Group-5" transform="translate(85.845080, 0.000000)" fill-rule="nonzero">
                    <path d="M4.346496,18.472608 L6.445656,8.174376 L6.643224,8.174376 L8.742384,18.472608 L11.7306,18.472608 L13.08888,1.2348 L11.286072,1.2348 L10.569888,11.1132 L10.199448,16.324056 L10.00188,16.324056 L7.729848,5.729472 L5.408424,5.729472 L3.136392,16.324056 L2.938824,16.324056 L2.568384,11.1132 L1.8522,1.2348 L9.37916411e-13,1.2348 L1.35828,18.472608 L4.346496,18.472608 Z M21.36204,18.76896 C22.251096,18.76896 23.053716,18.612552 23.7699,18.299736 C24.486084,17.98692 25.095252,17.538276 25.597404,16.953804 C26.099556,16.369332 26.482344,15.669612 26.745768,14.854644 C27.009192,14.039676 27.140904,13.121808 27.140904,12.10104 C27.140904,11.096736 27.009192,10.182984 26.745768,9.359784 C26.482344,8.536584 26.099556,7.832748 25.597404,7.248276 C25.095252,6.663804 24.486084,6.21516 23.7699,5.902344 C23.053716,5.589528 22.251096,5.43312 21.36204,5.43312 C20.472984,5.43312 19.670364,5.589528 18.95418,5.902344 C18.237996,6.21516 17.628828,6.663804 17.126676,7.248276 C16.624524,7.832748 16.241736,8.536584 15.978312,9.359784 C15.714888,10.182984 15.583176,11.096736 15.583176,12.10104 C15.583176,13.121808 15.714888,14.039676 15.978312,14.854644 C16.241736,15.669612 16.624524,16.369332 17.126676,16.953804 C17.628828,17.538276 18.237996,17.98692 18.95418,18.299736 C19.670364,18.612552 20.472984,18.76896 21.36204,18.76896 Z M21.36204,17.064936 C20.258952,17.064936 19.369896,16.735656 18.694872,16.077096 C18.019848,15.418536 17.682336,14.397768 17.682336,13.014792 L17.682336,13.014792 L17.682336,11.187288 C17.682336,9.804312 18.019848,8.783544 18.694872,8.124984 C19.369896,7.466424 20.258952,7.137144 21.36204,7.137144 C22.465128,7.137144 23.354184,7.466424 24.029208,8.124984 C24.704232,8.783544 25.041744,9.804312 25.041744,11.187288 L25.041744,11.187288 L25.041744,13.014792 C25.041744,14.397768 24.704232,15.418536 24.029208,16.077096 C23.354184,16.735656 22.465128,17.064936 21.36204,17.064936 Z M31.931928,18.472608 L31.931928,9.112824 C31.931928,8.421336 32.100684,7.906836 32.438196,7.569324 C32.775708,7.231812 33.207888,7.063056 33.734736,7.063056 C34.310976,7.063056 34.710228,7.272972 34.932492,7.692804 C35.154756,8.112636 35.265888,8.865864 35.265888,9.952488 L35.265888,9.952488 L35.265888,18.472608 L37.093392,18.472608 L37.093392,9.112824 C37.093392,8.421336 37.258032,7.906836 37.587312,7.569324 C37.916592,7.231812 38.344656,7.063056 38.871504,7.063056 C39.464208,7.063056 39.871692,7.272972 40.093956,7.692804 C40.31622,8.112636 40.427352,8.865864 40.427352,9.952488 L40.427352,9.952488 L40.427352,18.472608 L42.254856,18.472608 L42.254856,9.63144 C42.254856,8.281392 42.077868,7.24416 41.723892,6.519744 C41.369916,5.795328 40.674312,5.43312 39.63708,5.43312 C38.879736,5.43312 38.287032,5.622456 37.858968,6.001128 C37.430904,6.3798 37.101624,6.857256 36.871128,7.433496 L36.871128,7.433496 L36.79704,7.433496 C36.71472,6.840792 36.492456,6.35922 36.130248,5.98878 C35.76804,5.61834 35.216496,5.43312 34.475616,5.43312 C33.767664,5.43312 33.232584,5.605992 32.870376,5.951736 C32.508168,6.29748 32.22828,6.717312 32.030712,7.211232 L32.030712,7.211232 L31.931928,7.211232 L31.931928,5.729472 L30.104424,5.729472 L30.104424,18.472608 L31.931928,18.472608 Z M51.219504,18.76896 C52.487232,18.76896 53.561508,18.493188 54.442332,17.941644 C55.323156,17.3901 55.952904,16.686264 56.331576,15.830136 L56.331576,15.830136 L54.874512,14.842296 C54.545232,15.533784 54.067776,16.077096 53.442144,16.472232 C52.816512,16.867368 52.075632,17.064936 51.219504,17.064936 C50.6268,17.064936 50.087604,16.970268 49.601916,16.780932 C49.116228,16.591596 48.704628,16.324056 48.367116,15.978312 C48.029604,15.632568 47.770296,15.220968 47.589192,14.743512 C47.408088,14.266056 47.317536,13.74744 47.317536,13.187664 L47.317536,13.187664 L47.317536,12.59496 L56.751408,12.59496 L56.751408,11.656512 C56.751408,10.750992 56.619696,9.91956 56.356272,9.162216 C56.092848,8.404872 55.714176,7.750428 55.220256,7.198884 C54.726336,6.64734 54.129516,6.21516 53.429796,5.902344 C52.730076,5.589528 51.952152,5.43312 51.096024,5.43312 C50.223432,5.43312 49.429044,5.589528 48.71286,5.902344 C47.996676,6.21516 47.383392,6.663804 46.873008,7.248276 C46.362624,7.832748 45.963372,8.536584 45.675252,9.359784 C45.387132,10.182984 45.243072,11.104968 45.243072,12.125736 C45.243072,13.13004 45.383016,14.039676 45.662904,14.854644 C45.942792,15.669612 46.342044,16.369332 46.86066,16.953804 C47.379276,17.538276 48.004908,17.98692 48.737556,18.299736 C49.470204,18.612552 50.29752,18.76896 51.219504,18.76896 Z M54.627552,11.1132 L47.317536,11.1132 L47.317536,10.940328 C47.317536,10.380552 47.412204,9.866052 47.60154,9.396828 C47.790876,8.927604 48.0543,8.52012 48.391812,8.174376 C48.729324,7.828632 49.128576,7.556976 49.589568,7.359408 C50.05056,7.16184 50.552712,7.063056 51.096024,7.063056 C51.622872,7.063056 52.104444,7.153608 52.54074,7.334712 C52.977036,7.515816 53.347476,7.775124 53.65206,8.112636 C53.956644,8.450148 54.195372,8.8494 54.368244,9.310392 C54.541116,9.771384 54.627552,10.281768 54.627552,10.841544 L54.627552,10.841544 L54.627552,11.1132 Z M62.801928,18.472608 L62.801928,9.63144 C62.801928,9.21984 62.89248,8.857632 63.073584,8.544816 C63.254688,8.232 63.493416,7.976808 63.789768,7.77924 C64.08612,7.581672 64.423632,7.433496 64.802304,7.334712 C65.180976,7.235928 65.56788,7.186536 65.963016,7.186536 C66.950856,7.186536 67.699968,7.47054 68.210352,8.038548 C68.720736,8.606556 68.975928,9.475032 68.975928,10.643976 L68.975928,10.643976 L68.975928,18.472608 L70.951608,18.472608 L70.951608,10.298232 C70.951608,8.750616 70.54824,7.55286 69.741504,6.704964 C68.934768,5.857068 67.864608,5.43312 66.531024,5.43312 C66.004176,5.43312 65.543184,5.498976 65.148048,5.630688 C64.752912,5.7624 64.411284,5.935272 64.123164,6.149304 C63.835044,6.363336 63.5922,6.614412 63.394632,6.902532 C63.197064,7.190652 63.032424,7.49112 62.900712,7.803936 L62.900712,7.803936 L62.801928,7.803936 L62.801928,5.729472 L60.826248,5.729472 L60.826248,18.472608 L62.801928,18.472608 Z M96.240312,2.914128 C96.816552,2.914128 97.21992,2.794764 97.450416,2.556036 C97.680912,2.317308 97.79616,2.01684 97.79616,1.654632 L97.79616,1.654632 L97.79616,1.259496 C97.79616,0.897288 97.680912,0.59682 97.450416,0.358092 C97.21992,0.119364 96.816552,6.1817218e-13 96.240312,6.1817218e-13 C95.664072,6.1817218e-13 95.260704,0.119364 95.030208,0.358092 C94.799712,0.59682 94.684464,0.897288 94.684464,1.259496 L94.684464,1.259496 L94.684464,1.654632 C94.684464,2.01684 94.799712,2.317308 95.030208,2.556036 C95.260704,2.794764 95.664072,2.914128 96.240312,2.914128 Z M101.525256,18.472608 L101.525256,16.79328 L97.228152,16.79328 L97.228152,5.729472 L90.659016,5.729472 L90.659016,7.4088 L95.252472,7.4088 L95.252472,16.79328 L90.659016,16.79328 L90.659016,18.472608 L101.525256,18.472608 Z M107.254728,18.472608 L107.254728,9.63144 C107.254728,9.21984 107.34528,8.857632 107.526384,8.544816 C107.707488,8.232 107.946216,7.976808 108.242568,7.77924 C108.53892,7.581672 108.876432,7.433496 109.255104,7.334712 C109.633776,7.235928 110.02068,7.186536 110.415816,7.186536 C111.403656,7.186536 112.152768,7.47054 112.663152,8.038548 C113.173536,8.606556 113.428728,9.475032 113.428728,10.643976 L113.428728,10.643976 L113.428728,18.472608 L115.404408,18.472608 L115.404408,10.298232 C115.404408,8.750616 115.00104,7.55286 114.194304,6.704964 C113.387568,5.857068 112.317408,5.43312 110.983824,5.43312 C110.456976,5.43312 109.995984,5.498976 109.600848,5.630688 C109.205712,5.7624 108.864084,5.935272 108.575964,6.149304 C108.287844,6.363336 108.045,6.614412 107.847432,6.902532 C107.649864,7.190652 107.485224,7.49112 107.353512,7.803936 L107.353512,7.803936 L107.254728,7.803936 L107.254728,5.729472 L105.279048,5.729472 L105.279048,18.472608 L107.254728,18.472608 Z M140.940072,18.472608 L140.940072,3.037608 L146.69424,3.037608 L146.69424,1.2348 L133.11144,1.2348 L133.11144,3.037608 L138.865608,3.037608 L138.865608,18.472608 L140.940072,18.472608 Z M154.942704,18.76896 C156.210432,18.76896 157.284708,18.493188 158.165532,17.941644 C159.046356,17.3901 159.676104,16.686264 160.054776,15.830136 L160.054776,15.830136 L158.597712,14.842296 C158.268432,15.533784 157.790976,16.077096 157.165344,16.472232 C156.539712,16.867368 155.798832,17.064936 154.942704,17.064936 C154.35,17.064936 153.810804,16.970268 153.325116,16.780932 C152.839428,16.591596 152.427828,16.324056 152.090316,15.978312 C151.752804,15.632568 151.493496,15.220968 151.312392,14.743512 C151.131288,14.266056 151.040736,13.74744 151.040736,13.187664 L151.040736,13.187664 L151.040736,12.59496 L160.474608,12.59496 L160.474608,11.656512 C160.474608,10.750992 160.342896,9.91956 160.079472,9.162216 C159.816048,8.404872 159.437376,7.750428 158.943456,7.198884 C158.449536,6.64734 157.852716,6.21516 157.152996,5.902344 C156.453276,5.589528 155.675352,5.43312 154.819224,5.43312 C153.946632,5.43312 153.152244,5.589528 152.43606,5.902344 C151.719876,6.21516 151.106592,6.663804 150.596208,7.248276 C150.085824,7.832748 149.686572,8.536584 149.398452,9.359784 C149.110332,10.182984 148.966272,11.104968 148.966272,12.125736 C148.966272,13.13004 149.106216,14.039676 149.386104,14.854644 C149.665992,15.669612 150.065244,16.369332 150.58386,16.953804 C151.102476,17.538276 151.728108,17.98692 152.460756,18.299736 C153.193404,18.612552 154.02072,18.76896 154.942704,18.76896 Z M158.350752,11.1132 L151.040736,11.1132 L151.040736,10.940328 C151.040736,10.380552 151.135404,9.866052 151.32474,9.396828 C151.514076,8.927604 151.7775,8.52012 152.115012,8.174376 C152.452524,7.828632 152.851776,7.556976 153.312768,7.359408 C153.77376,7.16184 154.275912,7.063056 154.819224,7.063056 C155.346072,7.063056 155.827644,7.153608 156.26394,7.334712 C156.700236,7.515816 157.070676,7.775124 157.37526,8.112636 C157.679844,8.450148 157.918572,8.8494 158.091444,9.310392 C158.264316,9.771384 158.350752,10.281768 158.350752,10.841544 L158.350752,10.841544 L158.350752,11.1132 Z M169.982568,18.76896 C171.26676,18.76896 172.308108,18.489072 173.106612,17.929296 C173.905116,17.36952 174.493704,16.661568 174.872376,15.80544 L174.872376,15.80544 L173.464704,14.842296 C173.135424,15.533784 172.690896,16.077096 172.13112,16.472232 C171.571344,16.867368 170.863392,17.064936 170.007264,17.064936 C169.41456,17.064936 168.887712,16.970268 168.42672,16.780932 C167.965728,16.591596 167.578824,16.324056 167.266008,15.978312 C166.953192,15.632568 166.71858,15.220968 166.562172,14.743512 C166.405764,14.266056 166.32756,13.74744 166.32756,13.187664 L166.32756,13.187664 L166.32756,11.014416 C166.32756,10.45464 166.405764,9.936024 166.562172,9.458568 C166.71858,8.981112 166.953192,8.569512 167.266008,8.223768 C167.578824,7.878024 167.961612,7.610484 168.414372,7.421148 C168.867132,7.231812 169.381632,7.137144 169.957872,7.137144 C170.748144,7.137144 171.41082,7.318248 171.9459,7.680456 C172.48098,8.042664 172.863768,8.553048 173.094264,9.211608 L173.094264,9.211608 L174.674808,8.371944 C174.3126,7.499352 173.744592,6.7914 172.970784,6.248088 C172.196976,5.704776 171.192672,5.43312 169.957872,5.43312 C169.052352,5.43312 168.245616,5.589528 167.537664,5.902344 C166.829712,6.21516 166.228776,6.663804 165.734856,7.248276 C165.240936,7.832748 164.862264,8.536584 164.59884,9.359784 C164.335416,10.182984 164.203704,11.096736 164.203704,12.10104 C164.203704,13.105344 164.3313,14.019096 164.586492,14.842296 C164.841684,15.665496 165.21624,16.365216 165.71016,16.941456 C166.20408,17.517696 166.809132,17.96634 167.525316,18.287388 C168.2415,18.608436 169.060584,18.76896 169.982568,18.76896 Z M181.342728,18.472608 L181.342728,9.63144 C181.342728,9.21984 181.43328,8.857632 181.614384,8.544816 C181.795488,8.232 182.034216,7.976808 182.330568,7.77924 C182.62692,7.581672 182.964432,7.433496 183.343104,7.334712 C183.721776,7.235928 184.10868,7.186536 184.503816,7.186536 C185.491656,7.186536 186.240768,7.47054 186.751152,8.038548 C187.261536,8.606556 187.516728,9.475032 187.516728,10.643976 L187.516728,10.643976 L187.516728,18.472608 L189.492408,18.472608 L189.492408,10.298232 C189.492408,8.750616 189.08904,7.55286 188.282304,6.704964 C187.475568,5.857068 186.405408,5.43312 185.071824,5.43312 C184.544976,5.43312 184.083984,5.498976 183.688848,5.630688 C183.293712,5.7624 182.952084,5.935272 182.663964,6.149304 C182.375844,6.363336 182.133,6.614412 181.935432,6.902532 C181.737864,7.190652 181.573224,7.49112 181.441512,7.803936 L181.441512,7.803936 L181.342728,7.803936 L181.342728,0.197568 L179.367048,0.197568 L179.367048,18.472608 L181.342728,18.472608 Z" id="WomeninTech"></path>
                    <path d="M6.495048,44.32932 C8.421336,44.32932 9.907212,43.87656 10.952676,42.97104 C11.99814,42.06552 12.520872,40.814256 12.520872,39.217248 C12.520872,38.657472 12.446784,38.122392 12.298608,37.612008 C12.150432,37.101624 11.899356,36.640632 11.54538,36.229032 C11.191404,35.817432 10.726296,35.463456 10.150056,35.167104 C9.573816,34.870752 8.865864,34.648488 8.0262,34.500312 L8.0262,34.500312 L6.174,34.179264 C4.955664,33.965232 4.111884,33.615372 3.64266,33.129684 C3.173436,32.643996 2.938824,32.014248 2.938824,31.24044 C2.938824,30.2526 3.25164,29.51172 3.877272,29.0178 C4.502904,28.52388 5.400192,28.27692 6.569136,28.27692 C7.639296,28.27692 8.511888,28.474488 9.186912,28.869624 C9.861936,29.26476 10.438176,29.775144 10.915632,30.400776 L10.915632,30.400776 L12.372696,29.14128 C11.796456,28.301616 11.034996,27.651288 10.088316,27.190296 C9.141636,26.729304 7.976808,26.498808 6.593832,26.498808 C4.832184,26.498808 3.432744,26.902176 2.395512,27.708912 C1.35828,28.515648 0.839664,29.709288 0.839664,31.289832 C0.839664,31.833144 0.913752,32.355876 1.061928,32.858028 C1.210104,33.36018 1.457064,33.821172 1.802808,34.241004 C2.148552,34.660836 2.605428,35.018928 3.173436,35.31528 C3.741444,35.611632 4.44528,35.833896 5.284944,35.982072 L5.284944,35.982072 L7.211232,36.30312 C8.39664,36.500688 9.228072,36.834084 9.705528,37.303308 C10.182984,37.772532 10.421712,38.426976 10.421712,39.26664 C10.421712,40.303872 10.092432,41.110608 9.433872,41.686848 C8.775312,42.263088 7.8204,42.551208 6.569136,42.551208 C5.531904,42.551208 4.638732,42.345408 3.88962,41.933808 C3.140508,41.522208 2.42844,40.896576 1.753416,40.056912 L1.753416,40.056912 L0.24696,41.291712 C0.889056,42.180768 1.704024,42.9093 2.691864,43.477308 C3.679704,44.045316 4.947432,44.32932 6.495048,44.32932 Z M20.645856,44.32932 C21.172704,44.32932 21.633696,44.263464 22.028832,44.131752 C22.423968,44.00004 22.765596,43.827168 23.053716,43.613136 C23.341836,43.399104 23.58468,43.148028 23.782248,42.859908 C23.979816,42.571788 24.144456,42.27132 24.276168,41.958504 L24.276168,41.958504 L24.374952,41.958504 L24.374952,44.032968 L26.350632,44.032968 L26.350632,31.289832 L24.374952,31.289832 L24.374952,40.131 C24.374952,40.559064 24.2844,40.925388 24.103296,41.229972 C23.922192,41.534556 23.683464,41.785632 23.387112,41.9832 C23.09076,42.180768 22.753248,42.328944 22.374576,42.427728 C21.995904,42.526512 21.609,42.575904 21.213864,42.575904 C20.226024,42.575904 19.476912,42.2919 18.966528,41.723892 C18.456144,41.155884 18.200952,40.287408 18.200952,39.118464 L18.200952,39.118464 L18.200952,31.289832 L16.225272,31.289832 L16.225272,39.464208 C16.225272,41.011824 16.62864,42.20958 17.435376,43.057476 C18.242112,43.905372 19.312272,44.32932 20.645856,44.32932 Z M31.931928,44.032968 L31.931928,34.673184 C31.931928,33.981696 32.100684,33.467196 32.438196,33.129684 C32.775708,32.792172 33.207888,32.623416 33.734736,32.623416 C34.310976,32.623416 34.710228,32.833332 34.932492,33.253164 C35.154756,33.672996 35.265888,34.426224 35.265888,35.512848 L35.265888,35.512848 L35.265888,44.032968 L37.093392,44.032968 L37.093392,34.673184 C37.093392,33.981696 37.258032,33.467196 37.587312,33.129684 C37.916592,32.792172 38.344656,32.623416 38.871504,32.623416 C39.464208,32.623416 39.871692,32.833332 40.093956,33.253164 C40.31622,33.672996 40.427352,34.426224 40.427352,35.512848 L40.427352,35.512848 L40.427352,44.032968 L42.254856,44.032968 L42.254856,35.1918 C42.254856,33.841752 42.077868,32.80452 41.723892,32.080104 C41.369916,31.355688 40.674312,30.99348 39.63708,30.99348 C38.879736,30.99348 38.287032,31.182816 37.858968,31.561488 C37.430904,31.94016 37.101624,32.417616 36.871128,32.993856 L36.871128,32.993856 L36.79704,32.993856 C36.71472,32.401152 36.492456,31.91958 36.130248,31.54914 C35.76804,31.1787 35.216496,30.99348 34.475616,30.99348 C33.767664,30.99348 33.232584,31.166352 32.870376,31.512096 C32.508168,31.85784 32.22828,32.277672 32.030712,32.771592 L32.030712,32.771592 L31.931928,32.771592 L31.931928,31.289832 L30.104424,31.289832 L30.104424,44.032968 L31.931928,44.032968 Z M46.749528,44.032968 L46.749528,34.673184 C46.749528,33.981696 46.918284,33.467196 47.255796,33.129684 C47.593308,32.792172 48.025488,32.623416 48.552336,32.623416 C49.128576,32.623416 49.527828,32.833332 49.750092,33.253164 C49.972356,33.672996 50.083488,34.426224 50.083488,35.512848 L50.083488,35.512848 L50.083488,44.032968 L51.910992,44.032968 L51.910992,34.673184 C51.910992,33.981696 52.075632,33.467196 52.404912,33.129684 C52.734192,32.792172 53.162256,32.623416 53.689104,32.623416 C54.281808,32.623416 54.689292,32.833332 54.911556,33.253164 C55.13382,33.672996 55.244952,34.426224 55.244952,35.512848 L55.244952,35.512848 L55.244952,44.032968 L57.072456,44.032968 L57.072456,35.1918 C57.072456,33.841752 56.895468,32.80452 56.541492,32.080104 C56.187516,31.355688 55.491912,30.99348 54.45468,30.99348 C53.697336,30.99348 53.104632,31.182816 52.676568,31.561488 C52.248504,31.94016 51.919224,32.417616 51.688728,32.993856 L51.688728,32.993856 L51.61464,32.993856 C51.53232,32.401152 51.310056,31.91958 50.947848,31.54914 C50.58564,31.1787 50.034096,30.99348 49.293216,30.99348 C48.585264,30.99348 48.050184,31.166352 47.687976,31.512096 C47.325768,31.85784 47.04588,32.277672 46.848312,32.771592 L46.848312,32.771592 L46.749528,32.771592 L46.749528,31.289832 L44.922024,31.289832 L44.922024,44.032968 L46.749528,44.032968 Z M66.605112,28.474488 C67.181352,28.474488 67.58472,28.355124 67.815216,28.116396 C68.045712,27.877668 68.16096,27.5772 68.16096,27.214992 L68.16096,27.214992 L68.16096,26.819856 C68.16096,26.457648 68.045712,26.15718 67.815216,25.918452 C67.58472,25.679724 67.181352,25.56036 66.605112,25.56036 C66.028872,25.56036 65.625504,25.679724 65.395008,25.918452 C65.164512,26.15718 65.049264,26.457648 65.049264,26.819856 L65.049264,26.819856 L65.049264,27.214992 C65.049264,27.5772 65.164512,27.877668 65.395008,28.116396 C65.625504,28.355124 66.028872,28.474488 66.605112,28.474488 Z M71.890056,44.032968 L71.890056,42.35364 L67.592952,42.35364 L67.592952,31.289832 L61.023816,31.289832 L61.023816,32.96916 L65.617272,32.96916 L65.617272,42.35364 L61.023816,42.35364 L61.023816,44.032968 L71.890056,44.032968 Z M86.213736,44.032968 L86.213736,42.35364 L80.410176,42.35364 L80.410176,32.96916 L86.213736,32.96916 L86.213736,31.289832 L80.410176,31.289832 L80.410176,26.79516 L78.508584,26.79516 L78.508584,30.12912 C78.508584,30.557184 78.422148,30.857652 78.249276,31.030524 C78.076404,31.203396 77.775936,31.289832 77.347872,31.289832 L77.347872,31.289832 L74.186784,31.289832 L74.186784,32.96916 L78.434496,32.96916 L78.434496,41.11884 C78.434496,41.974968 78.660876,42.674688 79.113636,43.218 C79.566396,43.761312 80.278464,44.032968 81.24984,44.032968 L81.24984,44.032968 L86.213736,44.032968 Z M116.120592,44.032968 L116.120592,42.23016 L106.760808,42.23016 L111.576528,38.03184 C112.152768,37.53792 112.6755,37.039884 113.144724,36.537732 C113.613948,36.03558 114.017316,35.52108 114.354828,34.994232 C114.69234,34.467384 114.955764,33.91584 115.1451,33.3396 C115.334436,32.76336 115.429104,32.14596 115.429104,31.4874 C115.429104,30.762984 115.30974,30.096192 115.071012,29.487024 C114.832284,28.877856 114.48654,28.351008 114.03378,27.90648 C113.58102,27.461952 113.021244,27.116208 112.354452,26.869248 C111.68766,26.622288 110.9262,26.498808 110.070072,26.498808 C109.230408,26.498808 108.493644,26.614056 107.85978,26.844552 C107.225916,27.075048 106.68672,27.379632 106.242192,27.758304 C105.797664,28.136976 105.43134,28.569156 105.14322,29.054844 C104.8551,29.540532 104.62872,30.038568 104.46408,30.548952 L104.46408,30.548952 L106.31628,31.24044 C106.596168,30.351384 107.020116,29.639316 107.588124,29.104236 C108.156132,28.569156 108.966984,28.301616 110.02068,28.301616 C111.09084,28.301616 111.897576,28.58562 112.440888,29.153628 C112.9842,29.721636 113.255856,30.524256 113.255856,31.561488 L113.255856,31.561488 L113.255856,31.85784 C113.255856,32.746896 112.9842,33.590676 112.440888,34.38918 C111.897576,35.187684 111.206088,35.965608 110.366424,36.722952 L110.366424,36.722952 L104.612256,41.909112 L104.612256,44.032968 L116.120592,44.032968 Z M125.08524,44.32932 C126.138936,44.32932 127.044456,44.127636 127.8018,43.724268 C128.559144,43.3209 129.184776,42.740544 129.678696,41.9832 C130.172616,41.225856 130.534824,40.29564 130.76532,39.192552 C130.995816,38.089464 131.111064,36.829968 131.111064,35.414064 C131.111064,34.014624 130.995816,32.759244 130.76532,31.647924 C130.534824,30.536604 130.172616,29.602272 129.678696,28.844928 C129.184776,28.087584 128.559144,27.507228 127.8018,27.10386 C127.044456,26.700492 126.138936,26.498808 125.08524,26.498808 C124.031544,26.498808 123.126024,26.700492 122.36868,27.10386 C121.611336,27.507228 120.985704,28.087584 120.491784,28.844928 C119.997864,29.602272 119.635656,30.536604 119.40516,31.647924 C119.174664,32.759244 119.059416,34.014624 119.059416,35.414064 C119.059416,36.829968 119.174664,38.089464 119.40516,39.192552 C119.635656,40.29564 119.997864,41.225856 120.491784,41.9832 C120.985704,42.740544 121.611336,43.3209 122.36868,43.724268 C123.126024,44.127636 124.031544,44.32932 125.08524,44.32932 Z M125.08524,42.526512 C124.393752,42.526512 123.801048,42.390684 123.307128,42.119028 C122.813208,41.847372 122.413956,41.464584 122.109372,40.970664 C121.804788,40.476744 121.578408,39.879924 121.430232,39.180204 C121.282056,38.480484 121.207968,37.694328 121.207968,36.821736 L121.207968,36.821736 L121.207968,34.006392 C121.207968,33.150264 121.282056,32.368224 121.430232,31.660272 C121.578408,30.95232 121.804788,30.351384 122.109372,29.857464 C122.413956,29.363544 122.813208,28.980756 123.307128,28.7091 C123.801048,28.437444 124.393752,28.301616 125.08524,28.301616 C125.776728,28.301616 126.369432,28.437444 126.863352,28.7091 C127.357272,28.980756 127.756524,29.363544 128.061108,29.857464 C128.365692,30.351384 128.592072,30.95232 128.740248,31.660272 C128.888424,32.368224 128.962512,33.150264 128.962512,34.006392 L128.962512,34.006392 L128.962512,36.821736 C128.962512,37.694328 128.888424,38.480484 128.740248,39.180204 C128.592072,39.879924 128.365692,40.476744 128.061108,40.970664 C127.756524,41.464584 127.357272,41.847372 126.863352,42.119028 C126.369432,42.390684 125.776728,42.526512 125.08524,42.526512 Z M125.08524,36.871128 C125.66148,36.871128 126.060732,36.75588 126.282996,36.525384 C126.50526,36.294888 126.616392,36.015 126.616392,35.68572 L126.616392,35.68572 L126.616392,35.142408 C126.616392,34.813128 126.50526,34.53324 126.282996,34.302744 C126.060732,34.072248 125.66148,33.957 125.08524,33.957 C124.509,33.957 124.109748,34.072248 123.887484,34.302744 C123.66522,34.53324 123.554088,34.813128 123.554088,35.142408 L123.554088,35.142408 L123.554088,35.68572 C123.554088,36.015 123.66522,36.294888 123.887484,36.525384 C124.109748,36.75588 124.509,36.871128 125.08524,36.871128 Z M145.755792,44.032968 L145.755792,42.23016 L136.396008,42.23016 L141.211728,38.03184 C141.787968,37.53792 142.3107,37.039884 142.779924,36.537732 C143.249148,36.03558 143.652516,35.52108 143.990028,34.994232 C144.32754,34.467384 144.590964,33.91584 144.7803,33.3396 C144.969636,32.76336 145.064304,32.14596 145.064304,31.4874 C145.064304,30.762984 144.94494,30.096192 144.706212,29.487024 C144.467484,28.877856 144.12174,28.351008 143.66898,27.90648 C143.21622,27.461952 142.656444,27.116208 141.989652,26.869248 C141.32286,26.622288 140.5614,26.498808 139.705272,26.498808 C138.865608,26.498808 138.128844,26.614056 137.49498,26.844552 C136.861116,27.075048 136.32192,27.379632 135.877392,27.758304 C135.432864,28.136976 135.06654,28.569156 134.77842,29.054844 C134.4903,29.540532 134.26392,30.038568 134.09928,30.548952 L134.09928,30.548952 L135.95148,31.24044 C136.231368,30.351384 136.655316,29.639316 137.223324,29.104236 C137.791332,28.569156 138.602184,28.301616 139.65588,28.301616 C140.72604,28.301616 141.532776,28.58562 142.076088,29.153628 C142.6194,29.721636 142.891056,30.524256 142.891056,31.561488 L142.891056,31.561488 L142.891056,31.85784 C142.891056,32.746896 142.6194,33.590676 142.076088,34.38918 C141.532776,35.187684 140.841288,35.965608 140.001624,36.722952 L140.001624,36.722952 L134.247456,41.909112 L134.247456,44.032968 L145.755792,44.032968 Z M154.72044,44.32932 C155.774136,44.32932 156.679656,44.127636 157.437,43.724268 C158.194344,43.3209 158.819976,42.740544 159.313896,41.9832 C159.807816,41.225856 160.170024,40.29564 160.40052,39.192552 C160.631016,38.089464 160.746264,36.829968 160.746264,35.414064 C160.746264,34.014624 160.631016,32.759244 160.40052,31.647924 C160.170024,30.536604 159.807816,29.602272 159.313896,28.844928 C158.819976,28.087584 158.194344,27.507228 157.437,27.10386 C156.679656,26.700492 155.774136,26.498808 154.72044,26.498808 C153.666744,26.498808 152.761224,26.700492 152.00388,27.10386 C151.246536,27.507228 150.620904,28.087584 150.126984,28.844928 C149.633064,29.602272 149.270856,30.536604 149.04036,31.647924 C148.809864,32.759244 148.694616,34.014624 148.694616,35.414064 C148.694616,36.829968 148.809864,38.089464 149.04036,39.192552 C149.270856,40.29564 149.633064,41.225856 150.126984,41.9832 C150.620904,42.740544 151.246536,43.3209 152.00388,43.724268 C152.761224,44.127636 153.666744,44.32932 154.72044,44.32932 Z M154.72044,42.526512 C154.028952,42.526512 153.436248,42.390684 152.942328,42.119028 C152.448408,41.847372 152.049156,41.464584 151.744572,40.970664 C151.439988,40.476744 151.213608,39.879924 151.065432,39.180204 C150.917256,38.480484 150.843168,37.694328 150.843168,36.821736 L150.843168,36.821736 L150.843168,34.006392 C150.843168,33.150264 150.917256,32.368224 151.065432,31.660272 C151.213608,30.95232 151.439988,30.351384 151.744572,29.857464 C152.049156,29.363544 152.448408,28.980756 152.942328,28.7091 C153.436248,28.437444 154.028952,28.301616 154.72044,28.301616 C155.411928,28.301616 156.004632,28.437444 156.498552,28.7091 C156.992472,28.980756 157.391724,29.363544 157.696308,29.857464 C158.000892,30.351384 158.227272,30.95232 158.375448,31.660272 C158.523624,32.368224 158.597712,33.150264 158.597712,34.006392 L158.597712,34.006392 L158.597712,36.821736 C158.597712,37.694328 158.523624,38.480484 158.375448,39.180204 C158.227272,39.879924 158.000892,40.476744 157.696308,40.970664 C157.391724,41.464584 156.992472,41.847372 156.498552,42.119028 C156.004632,42.390684 155.411928,42.526512 154.72044,42.526512 Z M154.72044,36.871128 C155.29668,36.871128 155.695932,36.75588 155.918196,36.525384 C156.14046,36.294888 156.251592,36.015 156.251592,35.68572 L156.251592,35.68572 L156.251592,35.142408 C156.251592,34.813128 156.14046,34.53324 155.918196,34.302744 C155.695932,34.072248 155.29668,33.957 154.72044,33.957 C154.1442,33.957 153.744948,34.072248 153.522684,34.302744 C153.30042,34.53324 153.189288,34.813128 153.189288,35.142408 L153.189288,35.142408 L153.189288,35.68572 C153.189288,36.015 153.30042,36.294888 153.522684,36.525384 C153.744948,36.75588 154.1442,36.871128 154.72044,36.871128 Z" id="Summit2020"></path>
                </g>
                <g id="Group-7" transform="translate(0.000000, 1.789320)">
                    <path d="M37.8396228,30.1665756 C39.0812828,30.1665756 40.0938188,31.1777396 40.0938188,32.4193996 C40.0938188,33.6624316 39.0812828,34.6735956 37.8396228,34.6735956 C36.5979628,34.6735956 35.5854268,33.6624316 35.5854268,32.4193996 C35.5854268,31.1777396 36.5979628,30.1665756 37.8396228,30.1665756 M28.6115508,34.6735956 C27.3685188,34.6735956 26.3587268,33.6624316 26.3587268,32.4193996 C26.3587268,31.1777396 27.3685188,30.1665756 28.6115508,30.1665756 C29.8545828,30.1665756 30.8657468,31.1777396 30.8657468,32.4193996 C30.8657468,33.6624316 29.8545828,34.6735956 28.6115508,34.6735956 M37.8396228,35.8987916 C39.7576788,35.8987916 41.3190148,34.3388276 41.3190148,32.4193996 C41.3190148,30.5013436 39.7576788,28.9400076 37.8396228,28.9400076 C36.4978068,28.9400076 35.3329788,29.7042116 34.7526228,30.8182756 C33.8114308,30.2681036 32.6397428,30.2694756 31.6985508,30.8182756 C31.1195668,29.7042116 29.9533668,28.9400076 28.6115508,28.9400076 C26.6934948,28.9400076 25.1321588,30.5013436 25.1321588,32.4193996 C25.1321588,34.3388276 26.6934948,35.8987916 28.6115508,35.8987916 C30.5309788,35.8987916 32.0923148,34.3388276 32.0923148,32.4193996 C32.0923148,32.2945476 32.0840828,32.1696956 32.0717348,32.0475876 C32.7371548,31.4905556 33.7140188,31.4905556 34.3808108,32.0475876 C34.3670908,32.1696956 34.3602308,32.2945476 34.3602308,32.4193996 C34.3602308,34.3388276 35.9215668,35.8987916 37.8396228,35.8987916" id="Fill-2"></path>
                    <path d="M44.9447992,27.3944496 C44.6059152,27.3944496 44.3315152,27.6688496 44.3315152,28.0077336 C44.3315152,37.0588176 35.3805872,46.2964936 33.3349352,48.2900096 C31.8106432,46.8055056 26.4516112,41.3079016 23.8242312,34.8636176 C23.7309352,34.6331216 23.5072992,34.4822016 23.2575952,34.4822016 C23.0092632,34.4822016 22.7842552,34.6331216 22.6895872,34.8636176 C20.0676952,41.3010416 14.7059192,46.8041336 13.1802552,48.2886376 C11.1318592,46.2951216 2.1836752,37.0574456 2.1836752,28.0077336 C2.1836752,27.6688496 1.9092752,27.3944496 1.5703912,27.3944496 C1.2328792,27.3944496 0.9571072,27.6688496 0.9571072,28.0077336 C0.9571072,32.5216136 2.9506232,37.5307856 6.8800312,42.8953056 C9.7845552,46.8603856 12.6465472,49.4795336 12.7659112,49.5892936 C13.0005232,49.8019536 13.3586152,49.8019536 13.5904832,49.5892936 C13.8621392,49.3423336 19.9140312,43.7857336 23.2575952,36.6252656 C26.6011592,43.7857336 32.6530512,49.3423336 32.9233352,49.5892936 C33.0399552,49.6963096 33.1881312,49.7484456 33.3363072,49.7484456 C33.4831112,49.7484456 33.6312872,49.6963096 33.7492792,49.5892936 C33.8700152,49.4795336 36.7306352,46.8603856 39.6351592,42.8953056 C43.5645672,37.5307856 45.5567112,32.5216136 45.5567112,28.0077336 C45.5567112,27.6688496 45.2836832,27.3944496 44.9447992,27.3944496" id="Fill-3"></path>
                    <path d="M14.7728728,32.8592628 C15.0116008,33.0993628 15.3998768,33.0993628 15.6399768,32.8592628 C16.7595288,31.7397108 18.5815448,31.7397108 19.7024688,32.8592628 C19.8232048,32.9786268 19.9796128,33.0389948 20.1360208,33.0389948 C20.2924288,33.0389948 20.4502088,32.9786268 20.5695728,32.8592628 C20.8083008,32.6191628 20.8083008,32.2322588 20.5695728,31.9921588 C18.9711928,30.3937788 16.3698808,30.3937788 14.7728728,31.9921588 C14.5327728,32.2322588 14.5327728,32.6205348 14.7728728,32.8592628" id="Fill-4"></path>
                    <path d="M5.789154,31.9924332 C5.549054,32.2325332 5.549054,32.6208092 5.789154,32.8595372 C6.027882,33.0982652 6.416158,33.0982652 6.656258,32.8595372 C7.77581,31.7399852 9.597826,31.7399852 10.71875,32.8595372 C10.838114,32.9789012 10.994522,33.0392692 11.15093,33.0392692 C11.30871,33.0392692 11.46649,32.9789012 11.585854,32.8595372 C11.824582,32.6208092 11.824582,32.2325332 11.585854,31.9924332 C9.987474,30.3940532 7.386162,30.3940532 5.789154,31.9924332" id="Fill-5"></path>
                    <path d="M33.2251752,10.09106 C28.4149432,10.09106 23.8050232,11.856824 20.2309632,15.065932 C19.3048632,14.48146 18.2923272,13.979308 17.2125632,13.574568 C16.2315832,13.206872 15.1874912,12.987352 14.1776992,12.774692 C12.3378472,12.387788 10.6008952,12.022836 9.2700552,10.833312 C8.1340392,9.815288 7.5070352,8.418592 7.5070352,6.898416 C7.5070352,3.771628 10.0507232,1.226568 13.1788832,1.226568 C16.3070432,1.226568 18.8507312,3.771628 18.8507312,6.898416 C18.8507312,8.38978 18.2758632,9.798824 17.2331432,10.864868 C16.9957872,11.10634 16.9999032,11.494616 17.2427472,11.731972 C17.4842192,11.969328 17.8724952,11.96384 18.1084792,11.722368 C19.3775792,10.425828 20.0772992,8.7122 20.0772992,6.898416 C20.0772992,3.095232 16.9820672,-1.13331566e-12 13.1788832,-1.13331566e-12 C9.3756992,-1.13331566e-12 6.2804672,3.095232 6.2804672,6.898416 C6.2804672,8.745128 7.0721112,10.510892 8.4523432,11.747064 C10.0273992,13.154736 12.0085672,13.571824 13.9252512,13.975192 C14.9350432,14.18648 15.8872112,14.386792 16.7831272,14.722932 C19.2307752,15.6408 21.2901472,17.080028 22.7362352,18.882836 C24.2811072,20.807752 25.1331192,23.245796 25.1331192,25.749696 C25.1331192,26.087208 25.4075192,26.36298 25.7450312,26.36298 C25.8534192,26.36298 36.4754432,26.36298 36.8582312,26.36298 L36.8719512,26.36298 C37.0818672,26.36298 37.2835512,26.255964 37.3987992,26.063884 C37.6210632,25.692072 37.8090272,25.295564 37.9585752,24.883964 C38.3441072,23.82478 38.4620992,22.707972 38.3166672,21.617232 C39.3045072,22.723064 39.8478192,24.200708 39.7641272,25.715396 C39.7558952,25.878664 39.8162632,26.039188 39.9260232,26.159924 C40.0357832,26.28066 40.1935632,26.353376 40.3568312,26.361608 C40.3664352,26.361608 40.3760392,26.36298 40.3856432,26.36298 L44.9447992,26.36298 C45.2836832,26.36298 45.5567112,26.087208 45.5567112,25.749696 C45.5567112,25.410812 45.2836832,25.136412 44.9447992,25.136412 L40.9934392,25.136412 C40.8973992,22.780688 39.5775352,20.581372 37.5085592,19.409684 C37.2766912,19.279344 36.9885712,19.3109 36.7937472,19.48926 C36.5961792,19.668992 36.5385552,19.952996 36.6469432,20.194468 C37.2574832,21.550004 37.3151072,23.067436 36.8060952,24.465504 C36.7224032,24.696 36.6236192,24.92238 36.5111152,25.140528 C36.2229952,25.136412 35.7921872,25.136412 35.1336272,25.136412 L26.3418512,25.136412 C26.2156272,22.572144 25.2854112,20.0998 23.6938912,18.115888 C23.0037752,17.255644 22.1901792,16.473604 21.2723112,15.782116 C24.5884352,12.899544 28.8183112,11.317628 33.2251752,11.317628 C43.2805632,11.317628 51.4617992,19.497492 51.4617992,29.554252 L51.4617992,33.498752 L47.5159272,33.498752 C47.1784152,33.498752 46.9040152,33.773152 46.9040152,34.112036 C46.9040152,34.45092 47.1784152,34.72532 47.5159272,34.72532 L52.0750832,34.72532 C52.4125952,34.72532 52.6883672,34.45092 52.6883672,34.112036 L52.6883672,29.554252 C52.6883672,18.822468 43.9569592,10.09106 33.2251752,10.09106" id="Fill-6"></path>
                    <path d="M17.13628,17.189788 C17.316012,16.90304 17.226832,16.524368 16.940084,16.344636 C16.653336,16.164904 16.276036,16.252712 16.096304,16.540832 C12.84878,21.743456 7.330596,24.919636 1.243032,25.124064 C1.491364,20.452404 4.508392,16.266432 8.905652,14.581616 C9.221212,14.46088 9.380364,14.106904 9.259628,13.789972 C9.138892,13.474412 8.783544,13.316632 8.467984,13.437368 C6.003872,14.381304 3.897852,16.026332 2.376304,18.196836 C0.821828,20.416732 1.18483001e-12,23.02902 1.18483001e-12,25.749696 C1.18483001e-12,25.996656 0.149548,26.220292 0.378672,26.31496 C0.454132,26.346516 0.533708,26.361608 0.613284,26.361608 C0.622888,26.361608 0.632492,26.361608 0.642096,26.360236 C7.390964,26.352004 13.556732,22.924748 17.13628,17.189788" id="Fill-7"></path>
                </g>
            </g>
        </g>
    </g>
</svg>