<?xml version="1.0" encoding="UTF-8"?>
<svg width="295px" height="91px" viewBox="0 0 295 91" version="1.1" xmlns="http://www.w3.org/2000/svg" xmlns:xlink="http://www.w3.org/1999/xlink">
    <!-- Generator: Sketch 62 (91390) - https://sketch.com -->
    <title>kantega_logo_2012_white</title>
    <desc>Created with Sketch.</desc>
    <defs>
        <polygon id="path-1" points="0 0 295 0 295 91 0 91"></polygon>
    </defs>
    <g id="Page-1" stroke="none" stroke-width="1" fill="none" fill-rule="evenodd">
        <g id="Screen-Marion-Copy-2" transform="translate(-1506.000000, -4625.000000)">
            <g id="kantega_logo_2012_white" transform="translate(1506.000000, 4625.000000)">
                <mask id="mask-2" fill="white">
                    <use xlink:href="#path-1"></use>
                </mask>
                <g id="Clip-2"></g>
                <path d="M80.9772622,40.0825472 C80.6686345,38.98817 80.1524751,38.1490047 79.4287841,37.5661221 C78.6100486,36.8047697 77.6311256,36.423915 76.4920153,36.423915 C74.6762023,36.423915 72.7600052,36.9711036 70.743068,38.0658377 C68.8208194,39.1723509 67.0171094,40.6358038 65.3319381,42.4561964 C63.5520782,44.2052011 62.1164432,46.1505227 61.0246772,48.2921611 C59.8143725,50.5169664 59.1084801,52.6468258 58.907,54.6813823 C58.5983723,57.1203514 59.00774,58.3400145 60.1347473,58.3400145 C61.0962276,58.3400145 62.4546166,57.7392849 64.2109823,56.5374689 L69.7107493,52.1471102 C72.902394,49.1249014 76.6578983,45.1036184 80.9772622,40.0825472 Z M80.5141426,1.08688148 L80.5678944,1.14042244 C81.042405,1.72330503 81.2321381,2.5324874 81.1370936,3.56761262 C81.030658,4.18654612 80.7042317,4.78727569 80.1581707,5.37015827 C80.0873322,5.40585224 80.051735,5.44154622 80.051735,5.47724019 C78.7463858,6.82183216 76.6874439,8.81462668 73.8752654,11.4559807 C70.8616067,14.1687227 68.5477888,16.1615172 66.9338119,17.4347212 C66.3881069,17.8512699 65.8541489,18.2496146 65.3319381,18.6304693 C62.4962653,20.7960227 59.4466535,22.9258821 56.1838144,25.0196905 C52.2681227,27.3994077 48.2869322,29.5824511 44.2405988,31.5695346 C40.1946213,33.4970092 36.3202224,35.1510679 32.6181139,36.5309969 C32.5590226,36.5309969 32.5116783,36.5666909 32.4760811,36.6380788 C32.4404839,36.6619938 32.4226853,36.7094667 32.4226853,36.7808547 C33.3834536,43.1822118 34.2915381,48.5480868 35.1458709,52.8788366 C35.9286532,56.6267038 36.7833419,59.4822217 37.7085131,61.4453902 C38.8120262,63.9796623 39.9632396,65.2646453 41.1617972,65.3003393 C42.3599988,65.2646453 43.8671842,64.8363176 45.6826412,64.0153563 C46.6078124,63.5988076 47.5867353,63.099092 48.61941,62.5162094 C48.6546512,62.4805154 48.6728058,62.4448214 48.6728058,62.4091275 C50.0133962,61.7905509 51.1112138,62.3081135 51.9655465,63.9618153 C52.7248347,65.5441291 52.4995045,66.7459452 51.2891998,67.5669066 C46.9342387,70.6365883 43.2143316,72.0465002 40.1294785,71.7966424 L40.0223309,71.7966424 C38.420457,71.7013395 37.0204193,71.2551648 35.8222176,70.4581184 C34.5524656,69.672851 33.4845497,68.5724058 32.6181139,67.1564259 C32.5825167,67.0971739 32.5351724,67.067191 32.4760811,67.067191 C31.0995375,64.7945557 29.9842773,61.5585401 29.1299446,57.3584302 L27.3853259,46.1683696 C26.8278738,42.5275844 26.2583187,39.7969954 25.6766605,37.9766028 C25.6410633,37.9052149 25.6054661,37.8516739 25.5702248,37.8159799 C25.5107775,37.7802859 25.4456347,37.762439 25.3740843,37.762439 C25.3032459,37.762439 25.2494941,37.7981329 25.2142529,37.8695209 L14.0545316,53.0751535 C11.0761141,57.1085724 9.46249315,59.2798368 9.21331277,59.5893036 C8.15714393,61.0645355 7.23161681,62.5758183 6.4367314,64.1224382 C5.54680147,65.5619761 4.36604244,66.2166036 2.89481028,66.0856067 L2.78801869,66.0856067 C1.69625266,65.9785248 0.942659993,65.651211 0.527596675,65.1040224 C0.0527300652,64.5211399 -0.101405798,63.7298045 0.0644771402,62.7303732 L0.118228908,62.6232913 L0.420449111,61.5881661 L0.420449111,61.5346251 L0.474200879,61.5346251 C1.54211679,59.5832356 2.72857137,57.661829 4.03392059,55.7700484 C4.05741474,55.7343545 4.06916182,55.6986605 4.06916182,55.6629665 C4.5913727,54.937308 6.20499364,52.6646728 8.91038062,48.8454176 L22.1884911,31.051972 C25.0362669,27.3754928 27.486422,23.7347075 29.5393123,20.1296162 C29.5393123,20.0582282 29.5393123,20.0046873 29.5393123,19.9689933 L32.3155377,14.2401106 C33.1346292,12.2887211 33.6803343,10.5340054 33.9530088,8.97524956 C33.988962,8.46375493 33.8522687,8.17213517 33.543997,8.10074722 L33.4906012,8.04720626 C33.1581234,7.98759732 32.5946198,8.13037322 31.7997343,8.47553394 C30.83861,8.91599757 29.9661227,9.44533919 29.1833404,10.0639157 C26.8100752,11.9200024 24.5614003,13.9306439 22.4373155,16.0961972 C22.3664771,16.1318912 22.3308799,16.1675852 22.3308799,16.2032791 C20.4203783,18.2378356 17.9047244,21.3314323 14.7839181,25.4837122 C13.1702972,27.6849595 11.5566763,28.33923 9.94269934,27.4468807 C9.11221673,26.9353861 8.63165457,26.3342996 8.50136883,25.6443351 C8.39457724,24.9543706 8.6199075,24.1451882 9.1773596,23.2171449 C11.4676833,19.2672498 14.3984005,15.5368727 17.9702233,12.0270843 C21.0550764,8.69576575 24.2054283,6.11366373 27.4209231,4.28149209 C30.648521,2.25871462 33.3777581,1.33102826 35.6082785,1.49736218 C37.6611688,1.6044441 39.1505556,2.48501441 40.0760827,4.13871619 C40.8353709,5.50686619 41.025104,7.26193885 40.6452819,9.40357724 C40.135174,12.318704 38.865422,15.7214105 36.8367377,19.6120536 C35.3651496,22.5985683 33.3599595,26.0012748 30.8208114,29.8205299 C30.7852142,29.8562239 30.7670597,29.9097649 30.7670597,29.9811528 C30.7670597,30.0407617 30.7852142,30.0882347 30.8208114,30.1239287 C30.8560526,30.1596227 30.9098044,30.1953166 30.9806428,30.2310106 C31.01624,30.2310106 31.0696358,30.2310106 31.1411862,30.2310106 C34.2854866,29.1005825 37.5721758,27.7085175 41.0012538,26.0548157 C44.8461071,24.1987291 48.61941,22.1166997 52.3215185,19.8083704 L52.3215185,19.8619114 C55.9876738,17.6014121 59.3993092,15.2277629 62.5557127,12.7409637 C64.0030947,11.6822805 65.3618397,10.6171723 66.6312358,9.54635313 C67.3431797,8.83247367 68.8147678,7.4582557 71.0456442,5.42369923 C73.169373,3.32953382 74.5576636,1.95567279 75.2101603,1.30104532 C76.1360434,0.337308047 77.1149663,-0.0910196317 78.146929,0.0160622879 L78.2003248,0.0160622879 C78.947866,0.0160622879 79.7192572,0.37300202 80.5141426,1.08688148 Z M277.206455,30.2845516 C278.986315,30.2845516 280.618091,30.6297123 282.10107,31.3196768 C283.501464,32.1049442 284.681867,33.2053894 285.642991,34.6213693 L287.707628,32.408343 C288.52672,31.4685207 289.380697,30.998431 290.270627,30.998431 C290.994318,30.998431 291.611573,31.2065269 292.121681,31.6230756 C292.952164,32.3130401 293.314187,33.1757634 293.207395,34.2108886 C293.100604,34.8651592 292.845728,35.4483987 292.442412,35.9598933 L290.074842,38.9581871 C288.354786,40.9452705 286.94834,43.3485458 285.85693,46.1683696 C285.062045,48.4053109 284.528087,50.6597423 284.255056,52.9323776 C283.910831,55.8118104 283.910831,57.4598011 284.255056,57.8759929 C284.290298,57.9116868 284.379291,58.0187688 284.522035,58.1972386 C284.795066,58.3282355 285.221876,58.2568476 285.803178,57.9830748 L291.765709,54.5743003 C292.727189,53.9557238 293.634562,54.4018984 294.489251,55.9128243 C295.37918,57.4358862 295.10615,58.6434133 293.670159,59.5357626 C290.692097,61.4275432 288.633512,62.6829002 287.494045,63.3014768 C285.642991,64.324823 284.236902,64.8363176 283.276133,64.8363176 C280.701388,64.8363176 279.123008,63.9082743 278.54135,62.0521877 C278.173631,60.8146777 277.918399,59.2680578 277.776366,57.4119712 C277.669575,55.7939634 277.669575,54.3183746 277.776366,52.9859185 L277.829406,52.7182137 C274.400328,56.2636961 271.243925,59.029979 268.360552,61.0170625 L263.67952,63.6048756 C262.172691,64.2234521 260.819998,64.5329189 259.621796,64.5329189 C258.114611,64.5329189 256.791463,64.2056051 255.652352,63.5513346 C254.798376,62.968452 254.08038,62.1235757 253.498722,61.0170625 C252.91742,59.8509404 252.591349,58.5124164 252.519799,57.0014905 C252.555396,56.7634117 252.573551,56.4899959 252.573551,56.1805291 C252.573551,55.9428073 252.555396,55.7343545 252.519799,55.5558846 C252.17593,55.8296574 251.796108,56.1212771 251.380689,56.4303869 C251.108014,56.6684657 250.817185,56.9122556 250.508557,57.1621134 C248.313634,58.7801212 246.634515,59.9283963 245.47191,60.6065818 L245.418158,60.6601228 C239.010663,64.0631862 235.688376,65.8179019 235.450943,65.9249838 L230.254108,75.3660397 C228.296262,78.5667183 226.338417,81.2316304 224.380571,83.3614897 C222.220889,85.7647649 219.977909,87.6030046 217.652345,88.8762086 C215.967529,89.8399459 214.217571,90.4585224 212.401758,90.7322952 C211.606873,90.9107651 210.782085,91 209.927753,91 C209.14497,91 208.40882,90.9107651 207.721083,90.7322952 C206.036267,90.4228285 204.529082,89.7210849 203.200238,88.6263508 C202.167564,87.8293044 201.390477,86.9012611 200.868622,85.8422209 C200.358158,84.6047108 200.191919,83.2426288 200.369905,81.7552609 C200.702383,78.3525545 202.826468,75.1757909 206.74216,72.2249701 C210.277673,69.5718371 215.783492,66.7698602 223.258903,63.8190394 C226.201723,62.6411383 228.841967,61.4693051 231.179279,60.303183 L234.258793,52.7182137 C231.28002,55.3713468 228.432244,57.3644982 225.715466,58.6969542 C223.080917,59.9701583 220.666359,60.6065818 218.47108,60.6065818 C215.765693,60.6065818 213.635913,59.6310655 212.081739,57.679676 C211.132362,56.370778 210.6041,54.9430191 210.497664,53.3963992 C207.649888,55.6925925 205.181578,57.5129852 203.093447,58.8575771 C200.58954,60.439891 198.240125,61.659554 196.044846,62.5162094 C193.849923,63.3493067 191.791337,63.8308184 189.868732,63.9618153 C189.524863,63.9618153 189.216592,63.9618153 188.943561,63.9618153 C188.468694,63.9618153 187.988132,63.9439683 187.501519,63.9082743 C186.160572,63.7415835 184.962371,63.3846437 183.906202,62.8374551 C183.87096,62.8374551 183.835007,62.8196082 183.799766,62.7839142 C183.728216,62.7839142 183.657021,62.7660672 183.585827,62.7303732 C183.562333,62.7303732 183.532787,62.7125262 183.496834,62.6768323 C182.013855,61.9154798 180.7797,60.8146777 179.795081,59.3751397 L179.68829,59.2145169 C179.617095,59.1192139 179.581142,59.0182 179.581142,58.9111181 L179.528102,58.9111181 C173.737506,61.62386 167.92306,63.2240209 162.085476,63.7119575 C159.652763,63.9143423 157.51088,63.004146 155.660182,60.9813685 C154.877043,60.0533252 154.295385,58.970727 153.915919,57.733217 C153.571694,56.6267038 153.435357,55.4548707 153.506195,54.2173606 C143.527233,62.6768323 136.615325,66.9065681 132.771184,66.9065681 C131.192804,66.9065681 129.976804,66.3533115 129.122471,65.2467983 C128.232541,64.2591461 127.870518,62.9563161 128.036401,61.3383083 C128.309431,58.8993391 129.870012,55.2703328 132.717788,50.4516464 C135.565564,45.9781208 137.042848,43.3485458 137.149283,42.5632784 C137.351119,40.6001098 136.473292,39.6185256 134.515447,39.6185256 C132.604945,39.6185256 130.291127,40.4634019 127.573993,42.1527977 C125.28367,43.5923356 122.679379,45.656875 119.760052,48.345702 C117.802207,50.1660946 113.5131,54.6874502 106.891666,61.9094118 C106.001736,62.8374551 105.064462,63.3014768 104.079843,63.3014768 C101.884564,63.3014768 100.887842,62.2663516 101.089679,60.1961011 L101.552086,58.7504952 C104.162785,54.0745847 106.411104,48.9168056 108.298111,43.2771578 L101.712629,49.2737453 C101.499046,49.4761301 101.27336,49.6424641 101.036283,49.7734609 L99.1852285,51.4867717 C91.6382667,58.1854596 86.2869401,61.5346251 83.1305366,61.5346251 C80.9712106,61.5346251 79.4287841,60.6065818 78.502901,58.7504952 C77.7201186,57.2395693 77.4470881,55.3181627 77.6845214,52.9859185 L77.7379172,52.7182137 C74.3084833,56.2636961 71.1346372,59.029979 68.215667,61.0170625 L63.5880314,63.6048756 C62.080846,64.2234521 60.710354,64.5329189 59.4765551,64.5329189 C57.9337726,64.5329189 56.6287793,64.2056051 55.5608634,63.5513346 C54.6709335,62.968452 53.9707366,62.1235757 53.4602728,61.0170625 C52.5351017,59.3394458 52.2086754,57.0907255 52.4813499,54.2709016 C52.7187832,51.4153837 54.3149615,47.5486556 57.2695289,42.6703603 C58.2897446,41.1472984 59.452705,39.7195395 60.7576982,38.3870835 C63.059769,35.9124203 65.598917,33.9849458 68.3758544,32.6046598 C71.3183187,31.05804 74.2312373,30.2845516 77.1149663,30.2845516 C78.870976,30.2845516 80.484597,30.6297123 81.9561851,31.3196768 C83.39182,32.1049442 84.5903777,33.2053894 85.551502,34.6213693 L87.5627436,32.408343 C88.3811232,31.4685207 89.2180133,30.998431 90.0719901,30.998431 C90.8672314,30.998431 91.5197281,31.2065269 92.0298359,31.6230756 C92.8606745,32.3130401 93.2048994,33.1757634 93.0621546,34.2108886 C92.9913162,34.8651592 92.7716815,35.4483987 92.4039624,35.9598933 L89.8765614,38.9581871 C88.1913901,40.9452705 86.8386966,43.3485458 85.818481,46.1683696 C84.9876424,48.4053109 84.4358858,50.6597423 84.1628553,52.9323776 C84.0325696,54.3365785 84.1689069,55.038322 84.5725791,55.038322 L86.2812445,54.2173606 C88.7847954,52.5636588 91.9173488,49.9994038 95.6785486,46.5253094 L99.4344089,43.2771578 C99.6123949,43.1461609 99.7843293,43.009453 99.9502123,42.8666771 L109.419423,33.8004079 C110.54643,32.5868128 111.780585,31.9800153 113.121175,31.9800153 C115.51829,31.9800153 116.669148,33.3899272 116.574459,36.2097511 C116.337026,38.7558022 115.547836,41.8197729 114.207246,45.4009492 C117.980193,41.7840789 121.474769,38.982102 124.690264,36.9950185 C126.517824,35.8171174 128.249984,34.9365471 129.887811,34.3536645 C131.738865,33.735088 133.488823,33.4256212 135.138398,33.4256212 C138.021771,33.4256212 140.198895,34.2704976 141.670483,35.9598933 C143.248507,37.6135951 143.883205,39.8148424 143.574933,42.5632784 C143.301903,44.4550589 142.121144,47.066787 140.033012,50.3981055 C137.279925,54.4554394 135.666304,57.1560454 135.191437,58.5006374 L134.782426,59.8391614 C134.782426,59.9819373 134.835465,60.0829512 134.942613,60.1425602 L136.526332,59.4286807 C142.530512,55.6094256 147.899993,51.6534625 152.63442,47.5604346 C154.88879,45.5376571 156.650852,43.8900233 157.920604,42.6168193 L162.708427,35.1924729 C162.779621,35.085391 162.868614,34.9604621 162.975406,34.8176862 C163.283677,34.2704976 163.556708,33.7886289 163.794141,33.3720803 L169.293908,25.1803134 C160.513148,25.9416658 151.222279,27.024621 141.420947,28.428465 C140.590464,28.5355469 139.848975,28.345298 139.196122,27.8573614 C138.543625,27.3458668 138.169855,26.6737492 138.075166,25.8406519 C137.932778,25.0553845 138.104712,24.3354371 138.591326,23.6811665 C139.101434,23.026896 139.75393,22.6521093 140.549172,22.5568064 C151.382467,20.9744925 161.616661,19.8026594 171.251754,19.04095 L171.198002,19.094491 C171.981497,18.987409 172.77033,18.9160211 173.565572,18.8803271 L178.869198,10.991959 C179.581142,9.89758183 180.507025,9.35003628 181.646136,9.35003628 C183.864909,9.35003628 184.855935,10.3437565 184.618146,12.330483 L184.101986,13.9367118 L181.183016,18.3270705 C184.920722,18.0772127 188.569434,17.9226578 192.129154,17.8630489 C192.92404,17.8273549 193.612489,18.0832807 194.194148,18.6304693 C194.77545,19.2133519 195.084078,19.9332993 195.119319,20.7899547 C195.154916,21.5513071 194.881885,22.2594756 194.300939,22.9137461 C193.743131,23.4612917 193.07248,23.7525545 192.289342,23.7882484 C188.100975,23.8953304 183.793715,24.1034262 179.367915,24.412893 L179.332318,24.412893 C178.608271,24.4368079 177.902378,24.4842809 177.214285,24.5556689 L170.379623,34.8176862 L170.325871,34.8176862 C166.65936,39.9815333 163.948277,44.1637961 162.192267,47.3641178 C160.886918,49.8748318 160.168923,51.7962384 160.038637,53.1286944 C159.895892,54.4375924 160.050384,55.4548707 160.501401,56.1805291 C160.940314,57.0728785 161.693551,57.5190531 162.761467,57.5190531 C165.882273,57.4833592 169.257955,56.7459217 172.888869,55.3060268 C174.775521,54.5803683 176.389498,53.8365059 177.730444,53.0751535 C177.65925,52.7064347 177.623296,52.331648 177.623296,51.9507933 C177.766041,49.8209339 177.855034,48.7383357 177.890275,48.7026417 C178.198903,45.4662692 179.154332,42.4026555 180.756206,39.5114436 C182.239185,36.8700896 184.125836,34.5142874 186.415804,32.4440369 C188.611083,30.4569535 190.877201,28.9460276 193.215225,27.9109024 C195.54079,26.8522191 197.64672,26.3225205 199.533727,26.3225205 C202.179311,26.3225205 204.27385,27.107788 205.816276,28.6783228 C207.359059,30.3677185 207.940361,32.384785 207.560895,34.7284512 C207.181073,37.1317265 206.308942,39.3451097 204.944145,41.3675303 C204.256407,42.2955736 203.294927,43.4138657 202.060772,44.7227637 C199.177755,47.5425876 194.703899,50.6718782 188.640629,54.1102787 C187.572713,54.7288552 186.522596,55.3120948 185.490633,55.8592834 C185.431186,55.8949773 185.383841,55.9306713 185.347888,55.9663653 C186.059832,57.0014905 187.293987,57.5904411 189.050353,57.733217 L189.762297,57.733217 C192.064367,57.733217 195.065923,56.6445508 198.768031,54.4672184 C199.693559,53.8843358 200.672482,53.2179294 201.7048,52.4683559 C204.612379,50.5051874 207.797972,47.9948303 211.262648,44.9369276 L213.113702,43.2771578 C213.184896,43.2175489 213.273889,43.1700759 213.380681,43.1343819 C213.54692,42.8252721 213.718854,42.5336524 213.89684,42.2598796 C215.74825,39.4043617 218.109057,36.8404636 220.981038,34.5678284 C223.769367,32.402275 226.735681,30.7011002 229.880338,29.4635902 C233.036385,28.1907431 235.990953,27.5539626 238.743684,27.5539626 C241.520265,27.5539626 243.881783,28.2382161 245.827882,29.6063661 L245.988069,29.4635902 C246.71176,28.428465 247.65473,27.9109024 248.817691,27.9109024 C251.048567,27.9109024 252.045644,28.9103336 251.807855,30.9091961 L251.238656,32.4975779 L248.461719,36.8879366 C244.653175,45.3117143 241.650907,52.0696542 239.455628,57.1621134 L242.179169,55.6094256 C243.863985,54.4433035 246.130102,52.8609896 248.977878,50.8621271 C249.38155,50.5526604 249.707621,50.2970915 249.956801,50.0947067 L254.727181,46.0612877 C254.798376,46.0016788 254.887369,45.9363588 254.99416,45.8649709 C255.646657,44.9369276 256.40025,43.8721764 257.254226,42.6703603 C257.669646,42.0517837 258.233149,41.3257683 258.945093,40.4930279 C259.360512,40.0172272 259.977768,39.3151268 260.796147,38.3870835 C263.169769,35.9124203 265.744514,33.9849458 268.521095,32.6046598 C271.427962,31.05804 274.323082,30.2845516 277.206455,30.2845516 Z M200.725877,36.6737728 C200.963667,35.7100355 201.081849,35.2163878 201.081849,35.1924729 C201.188641,34.3954265 201.070102,33.776493 200.725877,33.3363863 C200.310458,32.7770617 199.711713,32.4975779 198.928575,32.4975779 C197.658823,32.4975779 196.336031,32.8248916 194.959131,33.4791622 C193.76093,34.0620448 192.562372,34.8890741 191.36417,35.9598933 C189.334774,37.8516739 187.685556,39.9815333 186.415804,42.3491145 C186.451757,42.3134205 186.522596,42.2955736 186.629743,42.2955736 C186.522596,42.3312675 186.439654,42.3848085 186.380563,42.4561964 C185.787158,43.3842397 185.181649,44.7406107 184.56475,46.5253094 C184.125836,47.7032105 183.852806,48.8215027 183.746014,49.8805429 C184.398867,49.4996882 185.069162,49.1249014 185.757612,48.7561827 C189.969828,46.3764655 193.915066,43.6580125 197.59368,40.6001098 C198.993718,39.3625998 200.037783,38.0540587 200.725877,36.6737728 Z M238.120733,33.8004079 C236.091693,33.8004079 233.878971,34.2940556 231.482212,35.2817078 C229.120694,36.2454451 226.872375,37.5721901 224.736543,39.2615858 C222.576861,40.9748965 220.797001,42.8666771 219.396963,44.9369276 C217.889778,47.1381749 217.029394,49.3212183 216.816166,51.4867717 C216.649927,53.4499402 217.409216,54.4315244 219.094031,54.4315244 C220.695905,54.4315244 222.529161,53.7951009 224.593798,52.5218969 C226.516403,51.3796897 228.539391,49.8330699 230.66312,47.8816804 C233.440057,45.2642413 237.195562,40.9988115 241.929633,35.085391 C240.968509,34.2287356 239.699113,33.8004079 238.120733,33.8004079 Z M215.285487,83.3079488 C216.721122,82.4869874 218.156757,81.2673243 219.592392,79.6493165 C222.072449,76.9961835 224.558557,73.4028712 227.050361,68.8697366 L215.694499,73.5634941 C212.811482,74.8366981 210.669598,76.1573751 209.269205,77.5255251 C207.750628,78.8701171 206.908043,80.280029 206.74216,81.7552609 C206.670965,82.5166134 206.997036,83.1533939 207.721083,83.6648885 C208.40882,84.390547 209.352502,84.7535547 210.550704,84.7535547 C212.057533,84.7535547 213.635913,84.271686 215.285487,83.3079488 Z M281.229295,40.0825472 C280.813875,38.98817 280.279917,38.1490047 279.627421,37.5661221 C278.737491,36.8047697 277.740413,36.423915 276.6369,36.423915 C274.85704,36.423915 272.940843,36.9711036 270.887953,38.0658377 C268.930107,39.1723509 267.108954,40.6358038 265.423783,42.4561964 C263.643923,44.2052011 262.190846,46.1505227 261.063126,48.2921611 C259.900522,50.5169664 259.229871,52.6468258 259.051885,54.6813823 C258.743613,57.1203514 259.140878,58.3400145 260.244747,58.3400145 C261.229365,58.3400145 262.599857,57.7392849 264.355867,56.5374689 L269.802238,52.1471102 C273.029836,49.1249014 276.838736,45.1036184 281.229295,40.0825472 L281.229295,40.0825472 Z" id="Fill-1" fill="#FFFFFE" mask="url(#mask-2)"></path>
            </g>
        </g>
    </g>
</svg>