<svg xmlns="http://www.w3.org/2000/svg" viewBox="0 0 356.14 52.28"><defs><style>.cls-1,.cls-2{fill:#fff;}.cls-1{fill-rule:evenodd;}</style></defs><title>sAsset 4</title><g id="Layer_2" data-name="Layer 2"><g id="Layer_1-2" data-name="Layer 1"><g id="shortcut_logo_master_white_rgb" data-name="shortcut logo master white rgb"><g id="word-mark"><path id="Fill-1" class="cls-1" d="M89.91,43.78a25.1,25.1,0,0,1-8.47-1.41,20.5,20.5,0,0,1-7.11-4.22l5.12-6.27a16.89,16.89,0,0,0,10.81,4.06,5.37,5.37,0,0,0,2.83-.6,1.91,1.91,0,0,0,1-1.71v-.09a1.86,1.86,0,0,0-.24-.95A2.72,2.72,0,0,0,93,31.8a10.94,10.94,0,0,0-1.72-.73c-.71-.25-1.63-.49-2.78-.77a50.17,50.17,0,0,1-4.92-1.38,14.6,14.6,0,0,1-4-1.94A8.93,8.93,0,0,1,76.89,24a9.07,9.07,0,0,1-1-4.41v-.08a11,11,0,0,1,.87-4.36,9.72,9.72,0,0,1,2.56-3.43A12.11,12.11,0,0,1,83.4,9.5a17.65,17.65,0,0,1,5.39-.79,23.25,23.25,0,0,1,7.62,1.15,19.8,19.8,0,0,1,6.08,3.37L97.86,19.9a18.45,18.45,0,0,0-4.69-2.47,13.53,13.53,0,0,0-4.62-.85,4.07,4.07,0,0,0-2.48.63,1.85,1.85,0,0,0-.82,1.55v.08a1.76,1.76,0,0,0,.27,1,2.46,2.46,0,0,0,.9.79,9.9,9.9,0,0,0,1.77.73c.74.25,1.69.49,2.83.77a34.45,34.45,0,0,1,5.15,1.47,15.48,15.48,0,0,1,3.92,2,8,8,0,0,1,2.48,2.94,9,9,0,0,1,.87,4.08v.11a10.67,10.67,0,0,1-1,4.66,10.25,10.25,0,0,1-2.72,3.46,12.22,12.22,0,0,1-4.22,2.17,21.28,21.28,0,0,1-5.61.71"/><polyline id="Fill-4" class="cls-1" points="108.94 9.34 118.17 9.34 118.17 22.11 130.01 22.11 130.01 9.34 139.24 9.34 139.24 43.48 130.01 43.48 130.01 30.5 118.17 30.5 118.17 43.48 108.94 43.48 108.94 9.34"/><path id="Fill-5" class="cls-1" d="M162.77,35.61A8.25,8.25,0,0,0,169,32.92a9.57,9.57,0,0,0,2.37-6.37v-.14a9.85,9.85,0,0,0-.63-3.48A8.88,8.88,0,0,0,166.17,18a7.85,7.85,0,0,0-3.51-.76,8.26,8.26,0,0,0-3.51.73,8.42,8.42,0,0,0-4.44,4.85,10,10,0,0,0-.6,3.51v.08a9.87,9.87,0,0,0,.63,3.49,9.16,9.16,0,0,0,1.74,2.91,8.47,8.47,0,0,0,6.29,2.8Zm-.06,8.5a18.42,18.42,0,0,1-7.21-1.39A18.06,18.06,0,0,1,149.78,39a17.29,17.29,0,0,1-5.14-12.44v-.11A17.86,17.86,0,0,1,146,19.52a16.83,16.83,0,0,1,3.84-5.63,18.08,18.08,0,0,1,5.77-3.79,19.5,19.5,0,0,1,14.46,0,17.44,17.44,0,0,1,9.5,9.34A17.06,17.06,0,0,1,181,26.3v.11a17.53,17.53,0,0,1-1.39,6.89,17.27,17.27,0,0,1-3.84,5.64A18.33,18.33,0,0,1,170,42.72,18.73,18.73,0,0,1,162.71,44.11Z"/><path id="Fill-6" class="cls-1" d="M201.84,25.73a5.38,5.38,0,0,0,3.65-1.09,3.62,3.62,0,0,0,1.28-2.94v-.11a3.59,3.59,0,0,0-1.33-3.05,6,6,0,0,0-3.68-1h-6v8.2l6.07,0ZM186.54,9.34h15.74a19,19,0,0,1,6.5,1A11.14,11.14,0,0,1,213.11,13a10.74,10.74,0,0,1,3,8v.11a11,11,0,0,1-1.85,6.54,11.76,11.76,0,0,1-5,3.94l7.92,11.9H206.52l-6.69-10.32h-4.06V43.48h-9.23Z"/><polyline id="Fill-7" class="cls-1" points="230.7 17.64 220.79 17.64 220.79 9.34 249.82 9.34 249.82 17.64 239.88 17.64 239.88 43.48 230.7 43.48 230.7 17.64"/><path id="Fill-8" class="cls-1" d="M270.29,44.11a17.5,17.5,0,0,1-6.75-1.31,16.24,16.24,0,0,1-5.5-3.67A17.92,17.92,0,0,1,253,26.52v-.11A18,18,0,0,1,258,13.86a17.34,17.34,0,0,1,5.58-3.79,18.42,18.42,0,0,1,7.08-1.36,19.63,19.63,0,0,1,4.71.52,14.79,14.79,0,0,1,3.87,1.47A15.63,15.63,0,0,1,282.41,13a17.38,17.38,0,0,1,2.5,2.86l-7,5.5a12.1,12.1,0,0,0-3.16-2.91,7.84,7.84,0,0,0-4.17-1.07,7.48,7.48,0,0,0-3.24.71,7.86,7.86,0,0,0-2.5,1.91,9,9,0,0,0-1.66,2.86,10,10,0,0,0-.6,3.51v.08a10.34,10.34,0,0,0,.6,3.57,8.67,8.67,0,0,0,1.66,2.88,8.14,8.14,0,0,0,2.5,1.94,7.57,7.57,0,0,0,3.24.71,9.28,9.28,0,0,0,2.37-.28,7.53,7.53,0,0,0,2-.84,11,11,0,0,0,1.66-1.31,21.45,21.45,0,0,0,1.55-1.69l7,5.07a23.85,23.85,0,0,1-2.61,3,15.9,15.9,0,0,1-7.24,4,19.74,19.74,0,0,1-5,.57"/><path id="Fill-9" class="cls-1" d="M305.74,44.11a20.31,20.31,0,0,1-6.4-.93,12,12,0,0,1-7.89-7.73,20.38,20.38,0,0,1-1.06-6.94V9.34h9.39v19c0,2.47.54,4.3,1.63,5.47a5.71,5.71,0,0,0,4.44,1.77,5.78,5.78,0,0,0,4.41-1.72c1.12-1.11,1.66-2.91,1.66-5.31V9.34h9.4V28.26a20.58,20.58,0,0,1-1.12,7.14,13,13,0,0,1-3.13,4.92,12.55,12.55,0,0,1-4.87,2.86,20.83,20.83,0,0,1-6.46.93"/><polyline id="Fill-10" class="cls-1" points="337.03 17.64 327.12 17.64 327.12 9.34 356.14 9.34 356.14 17.64 346.2 17.64 346.2 43.48 337.03 43.48 337.03 17.64"/></g></g><polygon class="cls-1" points="52.55 11.52 52.55 23.44 29.11 0 41.03 0 52.55 11.52"/><rect class="cls-2" x="28.07" y="-2.1" width="8.44" height="45.06" transform="translate(-4.99 28.82) rotate(-45)"/><rect class="cls-2" x="16.48" y="9.51" width="8.44" height="45.09" transform="translate(-16.6 24.02) rotate(-45)"/><polygon class="cls-1" points="0 28.59 23.69 52.28 11.76 52.28 0 40.52 0 28.59"/></g></g></svg>