<?xml version="1.0" encoding="UTF-8"?>
<svg width="463px" height="66px" viewBox="0 0 463 66" version="1.1" xmlns="http://www.w3.org/2000/svg" xmlns:xlink="http://www.w3.org/1999/xlink">
    <!-- Generator: Sketch 62 (91390) - https://sketch.com -->
    <title>Group 14 Copy 2</title>
    <desc>Created with Sketch.</desc>
    <defs>
        <polygon id="path-1" points="0.489383118 0.265818182 42.9227991 0.265818182 42.9227991 49.8639364 0.489383118 49.8639364"></polygon>
        <polygon id="path-3" points="0 66 463 66 463 1 0 1"></polygon>
    </defs>
    <g id="---------" stroke="none" stroke-width="1" fill="none" fill-rule="evenodd">
        <g id="Group-14-Copy-2">
            <g id="Group-3" transform="translate(367.000000, 0.000000)">
                <mask id="mask-2" fill="white">
                    <use xlink:href="#path-1"></use>
                </mask>
                <g id="Clip-2"></g>
                <path d="M0.489383118,35.7626939 L12.2325916,32.5533 C13.0219192,38.7773606 16.3773456,40.430997 22.4954187,40.430997 C27.3312265,40.430997 30.390263,38.7773606 30.390263,35.5679667 C30.390263,32.6506636 29.0086783,31.1917545 23.2847463,30.3165121 L15.1928315,29.0523303 C6.70625283,27.6907848 1.476304,22.9256333 1.476304,14.7563606 C1.476304,5.61499697 8.68009459,0.265663636 20.8179668,0.265663636 C33.94276,0.265663636 39.8637625,5.61499697 41.4424177,14.0753303 L30.390263,16.7015727 C29.6992093,10.6717242 27.3312265,9.21281515 21.2126306,9.21281515 C16.4761423,9.21281515 14.1076367,10.9633 14.1076367,14.1726939 C14.1076367,16.7984212 15.3904247,18.4515424 20.1274359,19.1325727 L29.9955992,20.5914818 C37.9887174,21.6609364 42.9227991,26.426603 42.9227991,34.2064212 C42.9227991,44.0288152 35.0284775,49.8639364 21.7060911,49.8639364 C9.27235166,49.8639364 1.77217117,43.5430273 0.489383118,35.7626939" id="Fill-1" fill="#E5E5E5" mask="url(#mask-2)"></path>
            </g>
            <mask id="mask-4" fill="white">
                <use xlink:href="#path-3"></use>
            </mask>
            <g id="Clip-5"></g>
            <polygon id="Fill-4" fill="#E5E5E5" mask="url(#mask-4)" points="227 49 239 49 239 13 227 13"></polygon>
            <path d="M46,1 L46,29.2238879 C46,41.8659512 36.6807923,50 22.9010103,50 C9.21995548,50 0,41.8659512 0,29.2238879 L0,1 L12.5903305,1 L12.5903305,29.6158214 C12.5903305,37.0641163 15.8619784,39.023784 22.9010103,39.023784 C30.1380216,39.023784 33.4091444,37.0641163 33.4091444,29.6158214 L33.4091444,1 L46,1 Z" id="Fill-6" fill="#E5E5E5" mask="url(#mask-4)"></path>
            <path d="M92.4220335,25.8357104 C92.4220335,16.522319 88.2947907,12.1567471 79.3526914,12.1567471 C70.2138337,12.1567471 65.9882116,16.522319 65.9882116,25.8357104 C65.9882116,34.9553619 70.2138337,39.3209339 79.3526914,39.3209339 C88.2947907,39.3209339 92.4220335,34.9553619 92.4220335,25.8357104 M105,25.8357104 C105,40.582042 96.8438935,50.477681 83.0864174,50.477681 C75.2254486,50.477681 69.5262202,46.5001028 66.4801078,39.3209339 L66.4801078,66 L54,66 L54,1.9702413 L66.4801078,1.9702413 L66.4801078,12.4476139 C69.5262202,5.0747051 75.618445,1 83.7745514,1 C97.1390312,1 105,10.895639 105,25.8357104" id="Fill-7" fill="#E5E5E5" mask="url(#mask-4)"></path>
            <path d="M151.421905,25.8357104 C151.421905,16.522319 147.29462,12.1567471 138.35243,12.1567471 C129.213479,12.1567471 124.988334,16.522319 124.988334,25.8357104 C124.988334,34.9553619 129.213479,39.3209339 138.35243,39.3209339 C147.29462,39.3209339 151.421905,34.9553619 151.421905,25.8357104 M164,25.8357104 C164,40.582042 155.84381,50.477681 142.086714,50.477681 C134.225145,50.477681 128.525858,46.5001028 125.479715,39.3209339 L125.479715,66 L113,66 L113,1.9702413 L125.479715,1.9702413 L125.479715,12.4476139 C128.525858,5.0747051 134.618145,1 142.774335,1 C156.138951,1 164,10.895639 164,25.8357104" id="Fill-8" fill="#E5E5E5" mask="url(#mask-4)"></path>
            <path d="M184.898033,21.3922974 L206.688406,21.3922974 C206.492754,13.2550089 203.17029,10.4117097 196.135093,10.4117097 C189.197723,10.4117097 185.777433,13.6470985 184.898033,21.3922974 M218.902174,29.9216755 L184.898033,29.9216755 C185.680124,37.9608118 189.197723,41.2943529 196.721532,41.2943529 C202.388716,41.2943529 204.831781,39.627842 207.176501,34.5296378 L217.925466,38.4510537 C214.700828,46.7846467 207.176501,51 196.428054,51 C181.771222,51 172,41.1962006 172,26.2941971 C172,11.1964084 181.869048,1 196.037267,1 C209.717391,1 219,10.509862 219,25.3137133 C219,26.8825912 219,27.9607079 218.902174,29.9216755" id="Fill-9" fill="#E5E5E5" mask="url(#mask-4)"></path>
            <path d="M289.822888,29.039344 L302,31.9807954 C298.687648,45.6078584 289.238234,51 278.132902,51 C263.228093,51 253,41.0004155 253,26.0978926 C253,11.0001039 263.228093,1 278.132902,1 C289.72536,1 298.882705,6.88238349 302,20.0197239 L289.822888,22.960656 C288.361511,14.9215197 285.049675,12.2745251 278.132902,12.2745251 C269.462683,12.2745251 265.469181,16.6861829 265.469181,26.0978926 C265.469181,35.3138171 269.462683,39.7254749 278.132902,39.7254749 C284.952147,39.7254749 288.263983,37.0784803 289.822888,29.039344" id="Fill-10" fill="#E5E5E5" mask="url(#mask-4)"></path>
            <path d="M348.936679,26.0978926 C348.936679,16.6861829 344.719193,12.2745251 335.59793,12.2745251 C326.771237,12.2745251 322.55375,16.6861829 322.55375,26.0978926 C322.55375,35.3138171 326.771237,39.7254749 335.59793,39.7254749 C344.719193,39.7254749 348.936679,35.3138171 348.936679,26.0978926 L348.936679,26.0978926 Z M361,1.9804838 L361,50.0195162 L348.54444,50.0195162 L348.54444,39.5291704 C345.601862,46.8822796 339.815417,51 331.871393,51 C318.140404,51 310,40.9998961 310,26.0978926 C310,11.0001039 317.846354,1 331.282773,1 C339.520847,1 345.504192,5.21587262 348.54444,12.764767 L348.54444,1.9804838 L361,1.9804838 Z" id="Fill-11" fill="#E5E5E5" mask="url(#mask-4)"></path>
            <path d="M428.898033,21.3922974 L450.688406,21.3922974 C450.492754,13.2550089 447.17029,10.4117097 440.135093,10.4117097 C433.197723,10.4117097 429.777433,13.6470985 428.898033,21.3922974 M462.902174,29.9216755 L428.898033,29.9216755 C429.679607,37.9608118 433.197723,41.2943529 440.721532,41.2943529 C446.388716,41.2943529 448.831781,39.627842 451.176501,34.5296378 L461.925466,38.4510537 C458.700828,46.7846467 451.176501,51 440.428054,51 C425.771222,51 416,41.1962006 416,26.2941971 C416,11.1964084 425.869048,1 440.037267,1 C453.717391,1 463,10.509862 463,25.3137133 C463,26.8825912 463,27.9607079 462.902174,29.9216755" id="Fill-12" fill="#E5E5E5" mask="url(#mask-4)"></path>
            <path d="M244.492492,14 L240,14 L240,2 L252,2 L252,6.42615501 C252,10.6089371 248.638639,14 244.492492,14" id="Fill-13" fill="#E5E5E5" mask="url(#mask-4)"></path>
        </g>
    </g>
</svg>