<?xml version="1.0" encoding="UTF-8"?>
<svg width="173px" height="25px" viewBox="0 0 173 25" version="1.1" xmlns="http://www.w3.org/2000/svg" xmlns:xlink="http://www.w3.org/1999/xlink">
    <!-- Generator: Sketch 62 (91390) - https://sketch.com -->
    <title>Group 14 Copy 4</title>
    <desc>Created with Sketch.</desc>
    <defs>
        <polygon id="path-1" points="0.181540497 0.1032 15.9225481 0.1032 15.9225481 19.35894 0.181540497 19.35894"></polygon>
        <polygon id="path-3" points="0 25 173 25 173 0 0 0"></polygon>
    </defs>
    <g id="---------" stroke="none" stroke-width="1" fill="none" fill-rule="evenodd">
        <g id="Group-14-Copy-4">
            <g id="Group-3" transform="translate(137.411429, 0.000000)">
                <mask id="mask-2" fill="white">
                    <use xlink:href="#path-1"></use>
                </mask>
                <g id="Clip-2"></g>
                <path d="M4.53777555,12.63834 C4.8305828,15.05474 6.0753045,15.69674 8.34485157,15.69674 C10.1387323,15.69674 11.2735058,15.05474 11.2735058,13.80874 C11.2735058,12.67614 10.7609962,12.10974 8.63765883,11.76994 L5.63589971,11.27914 C2.48773696,10.75054 0.547646519,8.90054 0.547646519,5.72894 C0.547646519,2.17994 3.219949,0.10314 7.72258768,0.10314 C12.5913324,0.10314 14.7877746,2.17994 15.3733891,5.46454 L11.2735058,6.48414 C11.0171541,4.14314 10.1387323,3.57674 7.86899131,3.57674 C6.11195388,3.57674 5.23333821,4.25634 5.23333821,5.50234 C5.23333821,6.52174 5.70919847,7.16354 7.46642982,7.42794 L11.1271022,7.99434 C14.0922119,8.40954 15.9225481,10.25974 15.9225481,13.28014 C15.9225481,17.09354 12.9940878,19.35894 8.05204432,19.35894 C3.4396514,19.35894 0.65740076,16.90494 0.181540497,13.88434 L4.53777555,12.63834 Z" id="Fill-1" fill="#FFFFFF" mask="url(#mask-2)"></path>
            </g>
            <mask id="mask-4" fill="white">
                <use xlink:href="#path-3"></use>
            </mask>
            <g id="Clip-5"></g>
            <polygon id="Fill-4" fill="#FFFFFF" mask="url(#mask-4)" points="85.0171429 18 89.96 18 89.96 5 85.0171429 5"></polygon>
            <path d="M16.8057143,1 L16.8057143,11.3679588 C16.8057143,16.0119821 13.4010199,19 8.3666921,19 C3.36843342,19 0,16.0119821 0,11.3679588 L0,1 L4.59977168,1 L4.59977168,11.5119344 C4.59977168,14.2480427 5.79504081,14.9679207 8.3666921,14.9679207 C11.0106735,14.9679207 12.2057508,14.2480427 12.2057508,11.5119344 L12.2057508,1 L16.8057143,1 Z" id="Fill-6" fill="#FFFFFF" mask="url(#mask-4)"></path>
            <path d="M34.9105013,9.55219633 C34.9105013,5.9701227 33.3904736,4.29105658 30.0971761,4.29105658 C26.7314142,4.29105658 25.1751542,5.9701227 25.1751542,9.55219633 C25.1751542,13.0597546 26.7314142,14.7388207 30.0971761,14.7388207 C33.3904736,14.7388207 34.9105013,13.0597546 34.9105013,9.55219633 M39.5428571,9.55219633 C39.5428571,15.2238623 36.539034,19.0298773 31.4722749,19.0298773 C28.5771484,19.0298773 26.4781721,17.5000395 25.3563153,14.7388207 L25.3563153,25 L20.76,25 L20.76,0.373169729 L25.3563153,0.373169729 L25.3563153,4.40292843 C26.4781721,1.56719427 28.7218856,0 31.7257087,0 C36.6477306,0 39.5428571,3.80601499 39.5428571,9.55219633" id="Fill-7" fill="#FFFFFF" mask="url(#mask-4)"></path>
            <path d="M56.6590255,9.55219633 C56.6590255,5.9701227 55.1389822,4.29105658 51.8456511,4.29105658 C48.4798548,4.29105658 46.9237707,5.9701227 46.9237707,9.55219633 C46.9237707,13.0597546 48.4798548,14.7388207 51.8456511,14.7388207 C55.1389822,14.7388207 56.6590255,13.0597546 56.6590255,9.55219633 M61.2914286,9.55219633 C61.2914286,15.2238623 58.2875747,19.0298773 53.2209557,19.0298773 C50.3256079,19.0298773 48.2266102,17.5000395 47.104742,14.7388207 L47.104742,25 L42.5085714,25 L42.5085714,0.373169729 L47.104742,0.373169729 L47.104742,4.40292843 C48.2266102,1.56719427 50.4703465,0 53.4742004,0 C58.3962725,0 61.2914286,3.80601499 61.2914286,9.55219633" id="Fill-8" fill="#FFFFFF" mask="url(#mask-4)"></path>
            <path d="M69.1403617,7.74907301 L77.3902366,7.74907301 C77.3161623,4.65690337 76.0582714,3.57644969 73.3947331,3.57644969 C70.768232,3.57644969 69.473304,4.80589744 69.1403617,7.74907301 M82.0143914,10.9902367 L69.1403617,10.9902367 C69.4364628,14.0451085 70.768232,15.3118541 73.61676,15.3118541 C75.7623663,15.3118541 76.6873148,14.67858 77.5750303,12.7412624 L81.644608,14.2314004 C80.4237543,17.3981657 77.5750303,19 73.5056486,19 C67.9565451,19 64.2571429,15.2745562 64.2571429,9.61179489 C64.2571429,3.87463517 67.9935823,0 73.357696,0 C78.537016,0 82.0514286,3.61374755 82.0514286,9.23921104 C82.0514286,9.83538466 82.0514286,10.245069 82.0143914,10.9902367" id="Fill-9" fill="#FFFFFF" mask="url(#mask-4)"></path>
            <path d="M108.029368,10.6549507 L112.697143,11.7727023 C111.42744,16.9509862 107.805257,19 103.548321,19 C97.8349552,19 93.9142857,15.2001579 93.9142857,9.53719918 C93.9142857,3.80003947 97.8349552,0 103.548321,0 C107.991983,0 111.50221,2.23530573 112.697143,7.22749509 L108.029368,8.34504928 C107.469188,5.2901775 106.199683,4.28431953 103.548321,4.28431953 C100.224821,4.28431953 98.6940172,5.96074949 98.6940172,9.53719918 C98.6940172,13.0392505 100.224821,14.7156805 103.548321,14.7156805 C106.162298,14.7156805 107.431803,13.7098225 108.029368,10.6549507" id="Fill-10" fill="#FFFFFF" mask="url(#mask-4)"></path>
            <path d="M130.002898,9.53719918 C130.002898,5.96074949 128.449634,4.28431953 125.090353,4.28431953 C121.839558,4.28431953 120.286294,5.96074949 120.286294,9.53719918 C120.286294,13.0392505 121.839558,14.7156805 125.090353,14.7156805 C128.449634,14.7156805 130.002898,13.0392505 130.002898,9.53719918 L130.002898,9.53719918 Z M134.445714,0.372583845 L134.445714,18.6274162 L129.85844,18.6274162 L129.85844,14.6410848 C128.774714,17.4352663 126.643616,19 123.717901,19 C118.660897,19 115.662857,15.1999605 115.662857,9.53719918 C115.662857,3.80003947 118.552601,0 123.501118,0 C126.535129,0 128.738743,1.6020316 129.85844,4.47061145 L129.85844,0.372583845 L134.445714,0.372583845 Z" id="Fill-11" fill="#FFFFFF" mask="url(#mask-4)"></path>
            <path d="M160.088933,7.74907301 L168.338808,7.74907301 C168.264734,4.65690337 167.006843,3.57644969 164.343305,3.57644969 C161.716803,3.57644969 160.421875,4.80589744 160.088933,7.74907301 M172.962963,10.9902367 L160.088933,10.9902367 C160.384838,14.0451085 161.716803,15.3118541 164.565331,15.3118541 C166.710938,15.3118541 167.635886,14.67858 168.523602,12.7412624 L172.593179,14.2314004 C171.372326,17.3981657 168.523602,19 164.45422,19 C158.905117,19 155.205714,15.2745562 155.205714,9.61179489 C155.205714,3.87463517 158.942154,0 164.306267,0 C169.485587,0 173,3.61374755 173,9.23921104 C173,9.83538466 173,10.245069 172.962963,10.9902367" id="Fill-12" fill="#FFFFFF" mask="url(#mask-4)"></path>
            <path d="M90.8219076,5 L88.9714286,5 L88.9714286,0 L93.9142857,0 L93.9142857,1.84423125 C93.9142857,3.58705714 92.529725,5 90.8219076,5" id="Fill-13" fill="#FFFFFF" mask="url(#mask-4)"></path>
        </g>
    </g>
</svg>